<svg width="9" height="10" viewBox="0 0 9 10" fill="none" xmlns="http://www.w3.org/2000/svg">
<path d="M4.4998 0.193214C6.81732 0.216283 8.83784 2.10961 8.8041 4.43778C8.80437 5.65118 8.26602 6.53641 7.54138 7.46221C7.35491 7.70046 7.20158 8.09319 6.93898 8.26736C6.5656 8.515 6.47974 8.29379 6.10131 8.40039C5.38539 8.60207 5.2186 9.56676 4.49979 9.75487C3.77628 9.52298 3.5501 8.39866 2.75256 8.46772C2.45854 8.49318 2.33949 8.661 2.06059 8.46384C1.78954 8.27223 1.64885 7.74949 1.45819 7.47706C0.779353 6.50708 0.17913 5.68193 0.195465 4.4378C0.218898 2.15242 2.13887 0.15997 4.4998 0.193214ZM4.4998 0.000423331C3.3156 -0.0166933 2.15501 0.486403 1.31796 1.30009C0.468325 2.11374 0.00840876 3.27875 0 4.43778C0.00948878 5.74345 0.62167 6.64567 1.31796 7.68944C1.46613 8.04001 1.64223 8.86408 2.00636 8.99858C2.48816 9.17654 2.28792 8.7796 2.77686 8.69113C3.57725 8.54632 3.76915 9.81643 4.49979 10C5.22273 9.74901 5.42155 8.66005 6.22271 8.63478C6.42605 8.62837 6.61789 8.83518 6.8467 8.77957C7.2341 8.68542 7.52869 7.92619 7.68161 7.64705C8.41055 6.6692 9.01832 5.69903 8.99957 4.43778C9.01693 3.27001 8.50675 2.12553 7.68161 1.30009C6.85655 0.462249 5.67514 0.00871539 4.4998 0.000423331Z" fill="white"/>
<path d="M3.95551 2.78445C3.95551 3.16436 3.79947 4.24202 3.37619 4.23487C2.94202 4.22755 2.79688 3.19171 2.79688 2.78445C2.79688 2.37718 2.94304 1.34134 3.37619 1.33402C3.80045 1.32685 3.95551 2.40455 3.95551 2.78445Z" fill="white"/>
<path d="M6.1977 2.78445C6.1977 3.16436 6.04165 4.24202 5.61838 4.23487C5.18421 4.22755 5.03906 3.19171 5.03906 2.78445C5.03906 2.37718 5.18523 1.34134 5.61838 1.33402C6.04264 1.32685 6.1977 2.40455 6.1977 2.78445Z" fill="white"/>
<path d="M4.50474 7.82814C2.64687 7.83365 1.02305 6.02438 1.02344 4.26997C1.02344 4.20608 1.07595 4.1543 1.14074 4.1543C1.20552 4.1543 1.25803 4.2061 1.25803 4.26997C1.25786 5.9988 2.74563 7.48012 4.50474 7.48012C6.2626 7.48012 7.75181 5.99974 7.75147 4.26997C7.75147 4.20608 7.80396 4.1543 7.86877 4.1543C7.93357 4.1543 7.98606 4.2061 7.98606 4.26997C7.98626 6.02421 6.36263 7.83365 4.50474 7.82814Z" fill="white"/>
<path d="M1.64322 4.6261C1.60729 4.62612 1.57186 4.60991 1.54883 4.57924C1.45325 4.45185 1.30343 4.3788 1.13786 4.3788C1.13779 4.3788 1.13775 4.3788 1.13767 4.3788C0.972292 4.37882 0.82267 4.45191 0.727261 4.57918C0.688747 4.63053 0.615305 4.64143 0.563213 4.60345C0.511121 4.56547 0.50009 4.49305 0.538604 4.44168C0.678699 4.25478 0.896999 4.14754 1.13759 4.14746C1.13769 4.14746 1.13777 4.14746 1.13786 4.14746C1.37859 4.14746 1.59711 4.25467 1.73741 4.44162C1.77596 4.49295 1.76499 4.56541 1.71292 4.60341C1.69192 4.61872 1.66746 4.6261 1.64322 4.6261Z" fill="white"/>
<path d="M8.36974 4.63293C8.33385 4.63295 8.29838 4.61673 8.2754 4.58607C8.17987 4.45871 8.02996 4.38564 7.86441 4.38564C7.86433 4.38564 7.86429 4.38564 7.86421 4.38564C7.69884 4.38566 7.54921 4.45875 7.45379 4.58602C7.41525 4.63739 7.34171 4.64821 7.28976 4.61028C7.23769 4.5723 7.22665 4.49988 7.26517 4.44851C7.40522 4.26168 7.62354 4.15437 7.86414 4.1543C7.86421 4.1543 7.86433 4.1543 7.86441 4.1543C8.10512 4.1543 8.32363 4.2615 8.46396 4.44846C8.50253 4.49979 8.49152 4.57225 8.43948 4.61025C8.41846 4.62556 8.39399 4.63293 8.36974 4.63293Z" fill="white"/>
</svg>
