<svg width="14" height="14" viewBox="0 0 14 14" fill="none" xmlns="http://www.w3.org/2000/svg">
<path d="M3.59653 1.31188C3.64514 1.284 3.69674 1.26962 3.75131 1.26873C3.80527 1.2701 3.85588 1.28384 3.90313 1.30995C3.9512 1.3375 3.99039 1.37774 4.02071 1.43067C4.05103 1.4836 4.06551 1.53706 4.06415 1.59105C4.06279 1.64504 4.04865 1.69496 4.02172 1.74081C3.99419 1.7889 3.95612 1.82689 3.90751 1.85476C3.8589 1.88264 3.80761 1.8959 3.75365 1.89454C3.69907 1.89542 3.64816 1.88281 3.60091 1.85669C3.55366 1.83058 3.51487 1.79105 3.48456 1.73812C3.45424 1.68519 3.43935 1.63102 3.43989 1.57559C3.44125 1.5216 3.4557 1.47056 3.48323 1.42246C3.51015 1.37662 3.54792 1.33976 3.59653 1.31188Z" fill="white"/>
<path d="M5.5897 0.156487C5.69733 0.131868 5.7985 0.130717 5.89319 0.153034C5.98627 0.175718 6.06584 0.224326 6.13189 0.29886C6.19831 0.375002 6.24676 0.479777 6.27725 0.613188L6.44471 1.34614L6.06879 1.43212L5.914 0.754624C5.88939 0.646931 5.84872 0.572512 5.79199 0.531365C5.73402 0.492193 5.66326 0.48216 5.57973 0.501268C5.52189 0.514496 5.47324 0.538309 5.43377 0.572708C5.39466 0.608714 5.36813 0.655375 5.35418 0.712689C5.3406 0.771611 5.3428 0.840452 5.3608 0.919213L5.50733 1.56055L5.13141 1.64653L4.83504 0.349394L5.19168 0.267821L5.27321 0.624654L5.18446 0.535861C5.20727 0.435928 5.25592 0.352917 5.33041 0.28683C5.40367 0.222716 5.4901 0.179269 5.5897 0.156487Z" fill="white"/>
<path d="M7.19619 1.37943C7.09089 1.37346 6.99832 1.34674 6.91849 1.29928C6.83691 1.25336 6.77473 1.18543 6.73196 1.09548C6.6891 1.00717 6.67149 0.895521 6.67914 0.760534L6.72223 0L7.10723 0.0218366L7.06749 0.723108C7.06143 0.83011 7.08081 0.910479 7.12563 0.964217C7.16881 1.01786 7.23318 1.04711 7.31873 1.05196C7.37961 1.05542 7.43547 1.04537 7.48632 1.02183C7.53543 0.999846 7.57547 0.963308 7.60642 0.912216C7.63573 0.861032 7.65272 0.794285 7.65738 0.711976L7.69459 0.0551513L8.07959 0.0769879L8.00432 1.40545L7.6366 1.3846L7.65745 1.01668L7.72025 1.13171C7.6675 1.2179 7.59535 1.28234 7.5038 1.32504C7.41225 1.36774 7.30972 1.38587 7.19619 1.37943Z" fill="white"/>
<path d="M9.17706 0.353106C9.32011 0.403337 9.43624 0.475566 9.52544 0.569794C9.61309 0.663476 9.66954 0.76892 9.6948 0.886127C9.71951 1.00489 9.71003 1.1265 9.66638 1.25097C9.62218 1.37699 9.55439 1.47813 9.46303 1.55438C9.36956 1.63165 9.26274 1.67977 9.14257 1.69873C9.02185 1.71925 8.89774 1.70712 8.77023 1.66235C8.64739 1.61922 8.54627 1.55401 8.46686 1.46671C8.38535 1.38043 8.33302 1.27818 8.30986 1.15996C8.28616 1.0433 8.29805 0.91729 8.34553 0.781936C8.35044 0.767934 8.35694 0.751871 8.36505 0.733747C8.37261 0.71718 8.37989 0.70139 8.3869 0.686378L9.40617 1.04427L9.33169 1.25664L8.50367 0.965901L8.66572 0.95203C8.6428 1.01737 8.6361 1.0788 8.64562 1.13631C8.65514 1.19382 8.67858 1.24399 8.71595 1.28682C8.75278 1.33121 8.80229 1.36432 8.86449 1.38616C8.92669 1.408 8.9868 1.41338 9.04483 1.4023C9.10075 1.39223 9.15066 1.36694 9.19456 1.32644C9.23791 1.28749 9.27132 1.23457 9.29478 1.16767L9.31443 1.11166C9.33844 1.04321 9.34495 0.977342 9.33396 0.914072C9.32087 0.85181 9.29202 0.797123 9.24742 0.750009C9.20072 0.703905 9.14005 0.667749 9.06541 0.641542C8.99855 0.618064 8.93669 0.607702 8.87984 0.610456C8.82143 0.612664 8.76414 0.626622 8.70797 0.652331L8.58804 0.374323C8.6685 0.329181 8.75854 0.304006 8.85817 0.298798C8.95725 0.295146 9.06354 0.313248 9.17706 0.353106Z" fill="white"/>
<path d="M11.9042 2.05273L10.8683 3.43947L10.603 3.24106L10.744 1.82119L10.8846 1.92631L9.57338 2.47112L9.31005 2.2742L10.342 0.884501L10.6429 1.10956L9.95383 2.03619L9.89839 1.99473L10.9433 1.56265L11.0878 1.67074L10.9795 2.80317L10.9121 2.75282L11.6032 1.82767L11.9042 2.05273Z" fill="white"/>
<path d="M12.6402 3.53785C12.6689 3.58597 12.6842 3.63733 12.6861 3.6919C12.6857 3.74591 12.6729 3.79679 12.6477 3.84453C12.621 3.89312 12.5815 3.93306 12.5292 3.96435C12.4768 3.99564 12.4237 4.0111 12.3697 4.01072C12.3157 4.01034 12.2656 3.9971 12.2193 3.971C12.1707 3.94433 12.132 3.90693 12.1033 3.85881C12.0746 3.81068 12.0604 3.75962 12.0608 3.70561C12.0589 3.65103 12.0706 3.59987 12.0958 3.55213C12.1211 3.50439 12.1598 3.46487 12.2122 3.43358C12.2645 3.40229 12.3184 3.38641 12.3738 3.38594C12.4278 3.38632 12.479 3.39985 12.5276 3.42652C12.5739 3.45262 12.6114 3.48973 12.6402 3.53785Z" fill="white"/>
<path d="M13.8306 5.51709C13.8566 5.62447 13.859 5.72567 13.8378 5.82068C13.8163 5.91409 13.7687 5.99429 13.695 6.0613C13.6198 6.12869 13.5157 6.17845 13.3827 6.21059L12.6523 6.38719L12.5617 6.01215L13.2369 5.84892C13.3442 5.82298 13.4181 5.78137 13.4585 5.7241C13.4969 5.66562 13.5061 5.59471 13.4859 5.51137C13.472 5.45367 13.4476 5.40529 13.4128 5.36622C13.3763 5.32754 13.3293 5.30158 13.2719 5.28833C13.2128 5.27546 13.1441 5.27852 13.0656 5.29749L12.4264 5.45201L12.3359 5.07698L13.6285 4.76446L13.7145 5.12026L13.3589 5.20623L13.4465 5.11634C13.5467 5.13793 13.6302 5.18558 13.6972 5.25929C13.7622 5.33179 13.8066 5.41772 13.8306 5.51709Z" fill="white"/>
<path d="M12.6248 7.13633C12.63 7.03093 12.656 6.93812 12.7029 6.85789C12.7482 6.77593 12.8156 6.71323 12.9052 6.66978C12.9932 6.62625 13.1046 6.60781 13.2396 6.61447L14 6.65201L13.981 7.03737L13.2798 7.00275C13.1728 6.99747 13.0927 7.01745 13.0393 7.06269C12.986 7.10628 12.9572 7.1709 12.953 7.25653C12.95 7.31746 12.9604 7.37328 12.9843 7.42399C13.0067 7.47296 13.0435 7.51275 13.0948 7.54334C13.1462 7.57229 13.213 7.5888 13.2953 7.59286L13.952 7.62528L13.933 8.01064L12.6047 7.94507L12.6229 7.577L12.9908 7.59516L12.8762 7.65884C12.7897 7.6067 12.7248 7.53498 12.6814 7.4437C12.6381 7.35241 12.6192 7.24996 12.6248 7.13633Z" fill="white"/>
<path d="M13.6878 9.0964C13.6421 9.24103 13.5735 9.35942 13.4822 9.45156C13.3914 9.54214 13.2878 9.60188 13.1715 9.63079C13.0536 9.65921 12.9318 9.65353 12.8061 9.61376C12.6789 9.57349 12.5757 9.50885 12.4967 9.41986C12.4166 9.3288 12.3652 9.22348 12.3425 9.10389C12.3182 8.98381 12.3265 8.85931 12.3672 8.7304C12.4065 8.60621 12.4685 8.50304 12.5532 8.4209C12.6368 8.3367 12.7373 8.28117 12.8547 8.25433C12.9705 8.22699 13.0968 8.23495 13.2335 8.2782C13.2476 8.28267 13.2639 8.28868 13.2822 8.29622C13.299 8.30326 13.315 8.31005 13.3302 8.3166L13.0045 9.34709L12.79 9.27923L13.0546 8.4421L13.0735 8.60372C13.0075 8.58284 12.946 8.57805 12.8888 8.58937C12.8317 8.60068 12.7823 8.62569 12.7407 8.6644C12.6975 8.70261 12.6659 8.75316 12.6461 8.81604C12.6262 8.87893 12.6227 8.93921 12.6356 8.99689C12.6474 9.05251 12.6742 9.10163 12.716 9.14427C12.7563 9.18641 12.8102 9.21816 12.8777 9.23954L12.9343 9.25744C13.0034 9.27932 13.0694 9.28377 13.1323 9.27081C13.1941 9.25577 13.2478 9.22522 13.2935 9.17915C13.3381 9.131 13.3723 9.0692 13.3962 8.99374C13.4175 8.92614 13.426 8.86396 13.4214 8.80719C13.4174 8.74885 13.4017 8.69199 13.3742 8.63662L13.6482 8.50801C13.6958 8.58706 13.7238 8.67632 13.7321 8.77579C13.7388 8.87477 13.7241 8.98164 13.6878 9.0964Z" fill="white"/>
<path d="M12.0271 11.8685L10.63 10.847L10.8255 10.5794L12.246 10.7053L12.1424 10.847L11.5839 9.54108L11.7779 9.2755L13.1778 10.293L12.9561 10.5965L12.0226 9.91704L12.0635 9.86112L12.5065 10.9019L12.4001 11.0477L11.2671 10.9514L11.3167 10.8835L12.2487 11.565L12.0271 11.8685Z" fill="white"/>
<path d="M10.5589 12.6119C10.5119 12.6424 10.4612 12.6595 10.4067 12.6634C10.3528 12.665 10.3015 12.654 10.2529 12.6305C10.2034 12.6056 10.162 12.5676 10.1289 12.5164C10.0957 12.4652 10.0784 12.4126 10.0768 12.3586C10.0752 12.3046 10.0866 12.254 10.111 12.2068C10.1359 12.1572 10.1718 12.1172 10.2188 12.0868C10.2658 12.0563 10.3163 12.0402 10.3703 12.0386C10.4247 12.0348 10.4763 12.0446 10.5249 12.0681C10.5735 12.0916 10.6143 12.129 10.6475 12.1802C10.6807 12.2313 10.6985 12.2846 10.701 12.34C10.7025 12.394 10.6909 12.4457 10.666 12.4953C10.6416 12.5425 10.6059 12.5814 10.5589 12.6119Z" fill="white"/>
<path d="M8.57433 13.8255C8.46699 13.8514 8.36585 13.8537 8.2709 13.8326C8.17755 13.811 8.09741 13.7633 8.03048 13.6896C7.96316 13.6142 7.91347 13.51 7.8814 13.377L7.70524 12.6461L8.08011 12.5556L8.24294 13.2313C8.26883 13.3387 8.31038 13.4126 8.3676 13.4531C8.42603 13.4915 8.4969 13.5007 8.5802 13.4806C8.63788 13.4667 8.68624 13.4423 8.7253 13.4075C8.76398 13.371 8.78995 13.324 8.80322 13.2665C8.81611 13.2075 8.81308 13.1386 8.79415 13.0601L8.64001 12.4206L9.01488 12.3301L9.32664 13.6236L8.97099 13.7094L8.88523 13.3536L8.97503 13.4413C8.95341 13.5415 8.90575 13.6251 8.83204 13.6921C8.75956 13.7571 8.67365 13.8015 8.57433 13.8255Z" fill="white"/>
<path d="M6.944 12.638C7.04944 12.6403 7.14289 12.6638 7.22434 12.7084C7.30747 12.7514 7.37199 12.8171 7.41788 12.9055C7.46381 12.9923 7.48531 13.1033 7.48239 13.2384L7.46595 14L7.08043 13.9917L7.09559 13.2894C7.0979 13.1823 7.07572 13.1026 7.02905 13.0505C6.98402 12.9984 6.91867 12.9714 6.833 12.9696C6.77204 12.9683 6.71656 12.9803 6.66656 13.0056C6.61825 13.0293 6.57952 13.0672 6.55037 13.1193C6.52287 13.1715 6.50823 13.2388 6.50646 13.3212L6.49226 13.979L6.10673 13.9706L6.13545 12.6403L6.50368 12.6483L6.49572 13.0167L6.42893 12.904C6.47863 12.816 6.54848 12.749 6.63848 12.7032C6.72848 12.6573 6.83032 12.6356 6.944 12.638Z" fill="white"/>
<path d="M5.00182 13.7358C4.85696 13.6911 4.73818 13.6233 4.64546 13.5326C4.55432 13.4423 4.49391 13.339 4.46422 13.2229C4.43502 13.1051 4.43987 12.9833 4.47876 12.8572C4.51815 12.7296 4.58204 12.626 4.67045 12.5463C4.76091 12.4655 4.86583 12.4134 4.98519 12.3899C5.10504 12.3648 5.22953 12.3722 5.35864 12.4121C5.48303 12.4505 5.58656 12.5118 5.66922 12.596C5.75395 12.6792 5.81013 12.7794 5.83775 12.8966C5.86587 13.0123 5.85877 13.1387 5.81647 13.2757C5.81209 13.2899 5.8062 13.3062 5.79879 13.3246C5.79187 13.3415 5.78519 13.3575 5.77875 13.3728L4.74663 13.0539L4.813 12.8388L5.65145 13.0979L5.49005 13.1179C5.51047 13.0517 5.51483 12.9901 5.50314 12.933C5.49144 12.8759 5.46611 12.8266 5.42714 12.7853C5.38866 12.7423 5.33792 12.7111 5.27494 12.6917C5.21196 12.6722 5.15168 12.6691 5.09412 12.6824C5.03862 12.6946 4.9897 12.7217 4.94738 12.7639C4.90554 12.8044 4.87416 12.8586 4.85325 12.9263L4.83575 12.9831C4.81436 13.0524 4.81035 13.1184 4.82374 13.1812C4.83918 13.243 4.87008 13.2965 4.91644 13.3419C4.96486 13.3862 5.02686 13.42 5.10244 13.4434C5.17014 13.4643 5.23235 13.4723 5.28906 13.4674C5.34734 13.463 5.40406 13.4468 5.45921 13.419L5.5896 13.6923C5.51092 13.7404 5.42191 13.769 5.32255 13.778C5.22367 13.7854 5.11677 13.7714 5.00182 13.7358Z" fill="white"/>
<path d="M2.21405 12.116L3.21092 10.7009L3.48166 10.8919L3.38025 12.3151L3.2368 12.214L4.53229 11.6328L4.80101 11.8223L3.80818 13.2402L3.50107 13.0237L4.16411 12.0782L4.22068 12.1181L3.18823 12.5791L3.04073 12.4751L3.11752 11.3401L3.18621 11.3885L2.52116 12.3326L2.21405 12.116Z" fill="white"/>
<path d="M1.4515 10.6465C1.42099 10.5995 1.40377 10.5488 1.39986 10.4943C1.39822 10.4403 1.40912 10.389 1.43256 10.3403C1.45738 10.2908 1.49536 10.2494 1.5465 10.2162C1.59764 10.1829 1.65018 10.1655 1.70414 10.1639C1.75809 10.1622 1.80869 10.1736 1.85594 10.1979C1.90546 10.2228 1.94548 10.2587 1.976 10.3057C2.00651 10.3527 2.02259 10.4032 2.02422 10.4572C2.02814 10.5117 2.01838 10.5633 1.99494 10.6119C1.9715 10.6606 1.93421 10.7015 1.88307 10.7347C1.83194 10.768 1.7787 10.7858 1.72336 10.7884C1.66941 10.79 1.61767 10.7784 1.56814 10.7536C1.5209 10.7292 1.48202 10.6935 1.4515 10.6465Z" fill="white"/>
<path d="M0.192671 8.69284C0.164721 8.58596 0.160415 8.48483 0.179756 8.38944C0.199513 8.29564 0.24559 8.21455 0.317987 8.14617C0.391979 8.07737 0.495136 8.02565 0.627458 7.991L1.35444 7.80067L1.45205 8.17393L0.780079 8.34986C0.673264 8.37783 0.600189 8.42082 0.560854 8.47884C0.523531 8.53804 0.515715 8.60911 0.537408 8.69206C0.552427 8.74948 0.577733 8.79739 0.613328 8.83579C0.650517 8.87378 0.697956 8.89885 0.755647 8.91102C0.814932 8.92277 0.883634 8.91841 0.961752 8.89796L1.59786 8.73142L1.69548 9.10468L0.408917 9.44152L0.316305 9.0874L0.670228 8.99474L0.584294 9.08626C0.483753 9.06657 0.39931 9.02051 0.330967 8.94807C0.264635 8.87681 0.218536 8.79173 0.192671 8.69284Z" fill="white"/>
<path d="M1.36042 7.0463C1.35831 7.1518 1.33501 7.24534 1.29052 7.3269C1.24765 7.41015 1.18207 7.4748 1.09379 7.52086C1.00716 7.56695 0.896292 7.58864 0.76119 7.58593L0 7.57068L0.00772056 7.18494L0.709597 7.199C0.81669 7.20114 0.896253 7.17883 0.948286 7.13204C1.00029 7.08691 1.02714 7.02148 1.02886 6.93576C1.03008 6.87477 1.018 6.81928 0.992632 6.76929C0.968875 6.72099 0.930915 6.6823 0.878753 6.65322C0.826558 6.62579 0.75927 6.61125 0.67689 6.6096L0.0194993 6.59643L0.02722 6.21068L1.35683 6.23732L1.34946 6.60576L0.981218 6.59838L1.09382 6.53137C1.18183 6.58096 1.24884 6.65074 1.29483 6.74072C1.34083 6.83069 1.36269 6.93255 1.36042 7.0463Z" fill="white"/>
<path d="M0.244504 5.11476C0.286549 4.96902 0.352066 4.84893 0.441055 4.7545C0.529587 4.66166 0.631618 4.59931 0.747148 4.56746C0.864262 4.53607 0.98615 4.53867 1.11281 4.57525C1.24106 4.61229 1.34581 4.67429 1.42706 4.76125C1.50945 4.85026 1.56349 4.95424 1.5892 5.07322C1.61649 5.19265 1.6114 5.31731 1.57393 5.44721C1.53783 5.57236 1.47846 5.67706 1.39584 5.76132C1.31434 5.84761 1.21526 5.90567 1.09861 5.93547C0.983535 5.96574 0.857125 5.96098 0.719379 5.9212C0.705129 5.91708 0.688733 5.91149 0.670191 5.90442C0.653232 5.8978 0.637064 5.89142 0.621688 5.88526L0.921256 4.84685L1.13738 4.90927L0.894019 5.75282L0.871026 5.59173C0.937525 5.61094 0.999199 5.61416 1.05605 5.60141C1.1129 5.58865 1.16164 5.5624 1.20227 5.52265C1.24448 5.48335 1.27472 5.43202 1.293 5.36866C1.31128 5.30529 1.31326 5.24494 1.29892 5.1876C1.28572 5.1323 1.25767 5.08387 1.21477 5.04231C1.17346 5.0012 1.11876 4.97082 1.05068 4.95116L0.99368 4.9347C0.924016 4.91458 0.857926 4.91179 0.795411 4.92635C0.734022 4.94294 0.681081 4.97484 0.636586 5.02206C0.593218 5.07131 0.560566 5.13396 0.538629 5.21C0.518978 5.27812 0.512132 5.3405 0.51809 5.39713C0.523592 5.45536 0.540756 5.5118 0.569582 5.56646L0.298941 5.70195C0.249352 5.62414 0.219145 5.53561 0.208322 5.43638C0.199082 5.33761 0.211143 5.2304 0.244504 5.11476Z" fill="white"/>
<path d="M1.82426 2.29626L3.25194 3.27441L3.0648 3.54786L1.64107 3.46568L1.74023 3.32079L2.33856 4.60899L2.15282 4.8804L0.722341 3.90633L0.934624 3.59615L1.88849 4.24668L1.84938 4.30382L1.37465 3.27714L1.4766 3.12818L2.61193 3.18962L2.56444 3.259L1.61197 2.60644L1.82426 2.29626Z" fill="white"/>
<path d="M7.07657 2.81938C9.19829 2.8403 11.0481 4.55726 11.0172 6.66857C11.0175 7.76894 10.5246 8.57171 9.86118 9.41128C9.69046 9.62733 9.55009 9.98348 9.30967 10.1414C8.96784 10.366 8.88923 10.1654 8.54277 10.2621C7.88733 10.445 7.73464 11.3198 7.07655 11.4904C6.41418 11.2801 6.2071 10.2605 5.47694 10.3231C5.20776 10.3462 5.09877 10.4984 4.84343 10.3196C4.59528 10.1458 4.46648 9.67179 4.29192 9.42475C3.67044 8.54512 3.12093 7.79683 3.13588 6.66858C3.15734 4.59609 4.9151 2.78923 7.07657 2.81938ZM7.07657 2.64454C5.99241 2.62902 4.92988 3.08526 4.16354 3.82315C3.38569 4.56101 2.96463 5.6175 2.95693 6.66857C2.96562 7.85262 3.52608 8.6708 4.16354 9.61734C4.2992 9.93525 4.46042 10.6826 4.79378 10.8045C5.23488 10.9659 5.05155 10.606 5.49919 10.5257C6.23196 10.3944 6.40764 11.5462 7.07655 11.7127C7.73842 11.4851 7.92044 10.4975 8.65392 10.4746C8.84007 10.4688 9.01571 10.6563 9.22519 10.6059C9.57986 10.5205 9.84956 9.83203 9.98956 9.5789C10.6569 8.69213 11.2133 7.81233 11.1962 6.66857C11.2121 5.60957 10.745 4.5717 9.98956 3.82315C9.23421 3.06335 8.15261 2.65206 7.07657 2.64454Z" fill="white"/>
<path d="M6.57969 5.16913C6.57969 5.51365 6.43683 6.49093 6.04932 6.48445C5.65183 6.47781 5.51894 5.53846 5.51894 5.16913C5.51894 4.7998 5.65276 3.86045 6.04932 3.85381C6.43773 3.84731 6.57969 4.82462 6.57969 5.16913Z" fill="white"/>
<path d="M8.63316 5.16913C8.63316 5.51365 8.4903 6.49093 8.10279 6.48445C7.7053 6.47781 7.57241 5.53846 7.57241 5.16913C7.57241 4.7998 7.70623 3.86045 8.10279 3.85381C8.4912 3.84731 8.63316 4.82462 8.63316 5.16913Z" fill="white"/>
<path d="M7.07751 9.74312C5.3766 9.74812 3.88998 8.10738 3.89033 6.51639C3.89033 6.45846 3.93841 6.41149 3.99772 6.41149C4.05703 6.41149 4.10511 6.45847 4.10511 6.51639C4.10495 8.08419 5.46702 9.42752 7.07751 9.42752C8.68686 9.42752 10.0503 8.08503 10.0499 6.51639C10.0499 6.45846 10.098 6.41149 10.1573 6.41149C10.2167 6.41149 10.2647 6.45847 10.2647 6.51639C10.2649 8.10723 8.77844 9.74812 7.07751 9.74312Z" fill="white"/>
<path d="M4.45918 6.83976C4.42628 6.83978 4.39385 6.82508 4.37277 6.79726C4.28526 6.68174 4.1481 6.6155 3.99652 6.6155C3.99659 6.6155 3.99645 6.6155 3.99652 6.6155C3.84511 6.61552 3.70795 6.6818 3.6206 6.79721C3.58534 6.84378 3.51811 6.85366 3.47042 6.81922C3.42273 6.78478 3.41263 6.7191 3.44789 6.67252C3.57615 6.50303 3.776 6.40578 3.99627 6.40571C3.99618 6.40571 3.99636 6.40571 3.99627 6.40571C4.21666 6.40571 4.41696 6.50293 4.54541 6.67246C4.58071 6.71901 4.57066 6.78472 4.52299 6.81918C4.50376 6.83307 4.48137 6.83976 4.45918 6.83976Z" fill="white"/>
<path d="M10.6196 6.84555C10.5867 6.84556 10.5542 6.83085 10.5332 6.80305C10.4457 6.68755 10.3085 6.62129 10.1569 6.62129C10.157 6.62129 10.1568 6.62129 10.1569 6.62129C10.0055 6.6213 9.86835 6.68758 9.78098 6.803C9.74571 6.84958 9.67838 6.8594 9.63081 6.82501C9.58314 6.79056 9.57304 6.72489 9.6083 6.6783C9.73652 6.50887 9.93706 6.41156 10.1573 6.41149C10.1573 6.41149 10.1574 6.41149 10.1573 6.41149C10.3777 6.41149 10.5773 6.50871 10.7058 6.67825C10.7411 6.7248 10.731 6.79051 10.6834 6.82497C10.6642 6.83886 10.6418 6.84555 10.6196 6.84555Z" fill="white"/>
</svg>
