<svg width="32" height="32" viewBox="0 0 32 32" fill="none" xmlns="http://www.w3.org/2000/svg">
<path d="M15.0733 3.27087C14.884 2.86182 13.5111 2.5263 11.9559 2.53639C10.7892 2.54395 9.61248 2.87271 9.41388 3.1515C8.97251 3.77104 9.83012 7.45917 10.5323 8.43313C10.8976 8.9399 14.6103 7.99553 14.7906 7.56776C14.8843 7.34548 14.7511 6.38009 14.8271 5.20349C14.8966 4.1269 15.1445 3.42468 15.0733 3.27087Z" fill="white"/>
<path d="M10.5333 8.43262C10.5311 8.42954 10.5288 8.42611 10.5266 8.42299C10.2713 7.55886 12.6241 7.55784 12.6709 6.30663C12.7192 5.01669 13.0253 4.02673 13.0643 3.29367C13.6238 3.38121 14.2788 3.57758 14.3289 3.65876C14.3793 3.74049 13.8523 5.39085 14.2237 7.00621C14.2237 7.00621 14.694 7.21766 14.8072 7.5215C14.8033 7.53865 14.7989 7.55427 14.7937 7.56681C14.6133 7.99482 10.8988 8.93968 10.5333 8.43262Z" fill="#D3E1EA"/>
<path d="M15.059 7.78834C15.0772 7.75887 15.0881 7.73298 15.0976 7.71052C15.1708 7.53697 15.1671 7.29493 15.1517 6.76413C15.1393 6.34084 15.124 5.81406 15.1618 5.22884C15.1976 4.67429 15.2829 4.22201 15.3451 3.89172C15.4198 3.49561 15.4573 3.29675 15.3752 3.11955C15.0266 2.36597 12.984 2.17956 11.9528 2.18623C10.8516 2.19337 9.46065 2.49862 9.14501 2.94174C8.80245 3.42437 8.99539 4.72748 9.21778 5.73716C9.43054 6.703 9.83252 8.04376 10.2651 8.64372C10.4586 8.91222 10.8864 8.98605 11.6954 8.8905C12.2995 8.8192 13.0613 8.65343 13.7332 8.44711C14.7304 8.1409 14.9741 7.92587 15.059 7.78834ZM14.517 7.37133C14.5171 7.3713 14.5171 7.3713 14.5171 7.3713L14.517 7.37133ZM14.7481 3.39825C14.739 3.47914 14.7119 3.62316 14.6873 3.7534C14.6216 4.10212 14.5316 4.57968 14.4929 5.17877C14.4529 5.79818 14.4694 6.36713 14.4815 6.78257C14.4884 7.01744 14.496 7.27947 14.485 7.39731C14.3019 7.52614 13.623 7.78855 12.6712 8.00565C11.561 8.25892 10.937 8.25713 10.7799 8.19465C10.4919 7.77111 10.124 6.72003 9.87746 5.61118C9.56407 4.20189 9.60918 3.49582 9.68149 3.36525C9.84619 3.20281 10.8464 2.89456 11.9597 2.88734C13.4816 2.87745 14.5335 3.19906 14.7481 3.39825Z" fill="black"/>
<path d="M14.9586 7.77133C15.0953 7.55002 15.0273 7.36447 14.9871 7.28863C14.6682 6.68674 12.9502 6.86958 12.5076 6.95149C11.2842 7.17792 10.4216 7.65872 10.311 8.17776C10.2632 8.40118 10.3478 8.61318 10.543 8.7595L10.8543 8.30402C10.8466 8.29833 10.8412 8.29353 10.8375 8.28982C10.8874 8.13458 11.4301 7.72093 12.6032 7.50384C13.5229 7.33361 14.4021 7.44782 14.5286 7.57432C14.5145 7.56017 14.5052 7.53078 14.5038 7.5037L14.8867 7.86814C14.9153 7.83529 14.939 7.80296 14.9586 7.77133Z" fill="black"/>
<path d="M10.3691 6.8379C10.0436 6.88955 9.70159 6.40253 9.60521 5.75013C9.50883 5.09772 9.69455 4.52698 10.02 4.47534C10.3455 4.4237 10.6875 4.91071 10.7839 5.56312C10.8803 6.21552 10.6945 6.78626 10.3691 6.8379Z" fill="black"/>
<path d="M10.1539 6.02836C10.0556 6.04397 9.95224 5.89679 9.92311 5.69963C9.89399 5.50247 9.95011 5.32999 10.0485 5.31439C10.1468 5.29878 10.2502 5.44596 10.2793 5.64312C10.3084 5.84028 10.2523 6.01275 10.1539 6.02836Z" fill="white"/>
<path d="M12.1925 9.62541C12.0486 9.29117 11.8796 8.41359 11.9426 8.28074C12.1142 7.91842 13.1588 7.73464 13.4144 7.98148C13.4857 8.05026 13.4718 8.39308 13.6731 8.98118L12.1925 9.62541Z" fill="white"/>
<path d="M12.9495 9.039C12.7481 8.45079 12.762 8.10791 12.6907 8.03912C12.6422 7.99228 12.5652 7.96102 12.4713 7.94346C12.8311 7.83969 13.2598 7.83471 13.4114 7.98103C13.4826 8.04982 13.4688 8.3927 13.6701 8.98091L12.1892 9.62525C12.1638 9.56612 12.1376 9.48941 12.112 9.4034L12.9495 9.039Z" fill="#D3E1EA"/>
<path d="M13.9875 8.86488C13.8836 8.56142 13.8427 8.33276 13.8128 8.16578C13.7783 7.9734 13.7535 7.83442 13.64 7.72495C13.3531 7.44782 12.8082 7.51576 12.5874 7.55786C12.3633 7.60044 11.8218 7.74063 11.6408 8.12471C11.4865 8.45026 11.7813 9.52648 11.8857 9.76896L12.4969 9.48323C12.3873 9.22864 12.2702 8.62463 12.2628 8.41458C12.4032 8.28454 12.9221 8.17583 13.1422 8.22868C13.1461 8.24958 13.1501 8.27179 13.1538 8.29212C13.1859 8.47157 13.2344 8.74271 13.3564 9.09881L13.9875 8.86488Z" fill="black"/>
<path d="M18.8788 9.24842C13.8607 6.91597 9.00439 10.3626 8.4615 15.5239L18.8788 9.24842Z" fill="#E4F2F9"/>
<path d="M8.46151 15.5239C9.0044 10.3626 13.8607 6.91597 18.8788 9.24842L18.7481 9.32721C16.0038 8.31187 13.3619 8.9877 11.5093 10.6808C11.5168 10.6854 11.525 10.6888 11.532 10.6942C11.813 10.9069 11.6644 11.6244 11.2003 12.2969C10.7361 12.9694 10.1321 13.3421 9.85119 13.1294C9.8176 13.104 9.79052 13.0709 9.76903 13.032C9.45228 13.6867 9.21519 14.399 9.07315 15.1554L8.46151 15.5239Z" fill="white"/>
<path d="M11.0639 13.9516C14.1005 10.7251 13.3175 9.70574 13.3175 9.70574C13.3175 9.70574 15.31 8.85079 18.1282 9.69601L11.0639 13.9516Z" fill="#A9C4D3"/>
<path d="M18.7482 9.56905L19.0184 8.92819C16.6144 7.81073 14.1187 7.8971 11.9914 9.17135C9.85655 10.4501 8.41404 12.8099 8.13275 15.4842L8.79954 15.5638C9.05755 13.1107 10.376 10.9487 12.3266 9.78049C14.2641 8.62 16.5447 8.54492 18.7482 9.56905Z" fill="black"/>
<path d="M21.0193 11.3806C20.9848 10.757 20.2211 9.39566 19.395 9.27582C16.1287 8.80208 8.93062 13.8541 8.18784 16.0649C7.83936 17.1022 8.64694 18.929 9.27948 19.5764L21.0193 11.3806Z" fill="#E4F2F9"/>
<path d="M21.0193 11.3806C20.9848 10.757 20.2211 9.39566 19.395 9.27582C16.1287 8.80208 8.93062 13.8541 8.18784 16.0649C7.83936 17.1022 8.64694 18.929 9.27948 19.5764L21.0193 11.3806Z" fill="#E4F2F9"/>
<path d="M13.0528 13.7033C15.1778 11.9109 15.1793 11.1987 15.1793 11.1987C15.1793 11.1987 18.2028 9.67547 19.1365 9.94677C19.8389 10.1508 20.1307 11.4975 20.1307 11.4975L20.3613 11.839L9.27795 19.5764C9.09229 19.3864 8.89173 19.0945 8.70959 18.7511C9.64776 16.5792 11.0434 15.3981 13.0528 13.7033Z" fill="#A9C4D3"/>
<path d="M8.18644 16.0671C8.92938 13.8558 16.1292 8.80257 19.3962 9.27639C19.6324 9.31065 19.8634 9.44664 20.0739 9.63761C15.3282 9.64584 10.0708 14.525 9.19315 16.2843C8.85686 16.9585 9.36497 18.1453 9.92763 19.126L9.27831 19.5793C8.64563 18.9318 7.83788 17.1046 8.18644 16.0671Z" fill="white"/>
<path d="M21.3516 11.363C21.3105 10.6191 20.4738 9.07988 19.4372 8.92949C17.2393 8.61073 13.9699 10.5271 12.6662 11.3658C10.5977 12.6965 8.31263 14.6297 7.86915 15.9483C7.454 17.1843 8.39334 19.1623 9.04325 19.8275L9.51135 19.3271C8.91849 18.7203 8.21602 17.0353 8.50218 16.1834C8.8283 15.2127 10.7281 13.4378 13.0195 11.9638C15.6064 10.2994 17.9722 9.4249 19.3479 9.62442C19.9684 9.7144 20.6543 10.899 20.682 11.4005L21.3516 11.363Z" fill="black"/>
<path d="M20.8472 12.104C21.909 10.3852 18.585 10.8146 14.4028 13.5799C10.4626 16.1851 7.81487 19.9777 9.95044 19.7821L20.8472 12.104Z" fill="#A9C4D3"/>
<path d="M21.1305 12.294C21.5594 11.5997 21.3475 11.2044 21.183 11.0307C20.4029 10.2069 17.4113 11.1746 14.2243 13.2818C11.3599 15.1758 8.47562 18.2725 8.90263 19.5823C8.97914 19.8168 9.22122 20.1998 9.98301 20.13L9.92168 19.431C9.71235 19.4502 9.55799 19.421 9.53752 19.3583C9.46676 19.1412 9.73419 18.3847 10.7608 17.1895C11.7537 16.0336 13.1474 14.8256 14.5845 13.8754C16.0573 12.9016 17.5499 12.142 18.7876 11.7363C20.1091 11.3032 20.6292 11.441 20.7072 11.5234C20.7165 11.5332 20.7301 11.6466 20.5665 11.9115L21.1305 12.294Z" fill="black"/>
<path d="M20.8377 12.1019C17.8794 11.7753 10.6263 17.0508 9.95028 19.768C9.93473 19.8305 12.2733 24.846 17.4495 28.8362L26.6167 18.7415C26.6167 18.7415 22.302 15.7056 20.8377 12.1019Z" fill="#904EFF"/>
<path d="M20.8377 12.1019C17.8794 11.7753 10.6263 17.0508 9.95028 19.768C9.93473 19.8305 12.2733 24.846 17.4495 28.8362L26.6167 18.7415C26.6167 18.7415 22.302 15.7056 20.8377 12.1019Z" fill="#904EFF"/>
<path d="M23.7287 21.2555C18.5124 17.4336 19.1887 15.8819 17.7729 15.1678C16.2576 14.4036 12.2903 16.9152 10.1499 20.1911C10.0168 19.9285 9.95254 19.7774 9.95516 19.7669C10.4464 17.7926 14.4111 14.4678 17.6762 12.9238C18.5151 12.612 19.2704 12.456 19.8566 12.5208C21.3204 16.1231 25.6338 19.1578 25.6338 19.1578L23.7287 21.2555Z" fill="#7828FF" fill-opacity="0.94"/>
<g opacity="0.6">
<path d="M9.94311 19.7708C10.0508 19.3381 10.3259 18.8403 10.7233 18.3108C10.6461 18.4776 10.5865 18.6382 10.5486 18.7904C10.5331 18.8529 12.8711 23.8672 18.0464 27.8565L26.4349 18.6195C26.5447 18.7012 26.6063 18.7445 26.6063 18.7445L17.4409 28.8369C12.2656 24.8476 9.92756 19.8333 9.94311 19.7708Z" fill="white"/>
</g>
<g opacity="0.6">
<path d="M13.0546 18.0903C12.1961 18.6539 12.398 19.9561 14.04 21.7298C15.3596 23.1553 16.1898 23.3603 16.7517 22.6073C17.4785 21.6334 16.7831 20.85 15.8397 19.7316C14.6886 18.3669 13.8227 17.5861 13.0546 18.0903Z" fill="white"/>
</g>
<g opacity="0.6">
<path d="M17.0459 22.9835C16.6381 23.5133 16.7396 23.8851 17.0985 24.183C17.5037 24.5192 17.831 24.4065 18.1414 23.9986C18.529 23.4893 18.5756 23.1349 18.1793 22.8048C17.839 22.5213 17.4419 22.4691 17.0459 22.9835Z" fill="white"/>
</g>
<path d="M27.1276 18.684L26.7976 18.4515C26.7552 18.4217 22.5481 15.4302 21.1408 11.9669L21.0631 11.7756L20.8658 11.7539C19.1624 11.5658 16.3794 13.0512 14.3428 14.5042C12.3239 15.9445 10.0231 18.0605 9.62048 19.6785C9.59064 19.7982 9.57084 19.8775 10.0919 20.8243C10.3616 21.3143 10.8209 22.0958 11.4773 23.0355C12.6068 24.6525 14.5245 27.0204 17.2462 29.1184L17.4848 29.3024L27.1276 18.684ZM20.6085 12.4392C21.9297 15.4676 25.0739 18.0174 26.1006 18.7939L17.4048 28.3696C12.7647 24.7047 10.6025 20.3885 10.301 19.7474C10.6712 18.5767 12.4226 16.725 14.7228 15.084C17.0409 13.4303 19.3126 12.4144 20.6085 12.4392Z" fill="black"/>
<path d="M27.5835 19.4528C27.3797 19.0227 26.6497 18.2764 26.1413 18.2278C25.4543 18.1622 23.1724 19.4208 20.3641 22.5515C17.9496 25.2432 16.8056 27.5767 17.2124 28.7946C17.3086 29.0828 18.0173 29.6467 18.5079 29.6841L27.5835 19.4528Z" fill="#E4F2F9"/>
<path d="M26.6487 18.4981C25.9616 18.4325 23.6791 19.6914 20.8701 22.8228C18.455 25.515 17.3108 27.849 17.7176 29.0671C17.7677 29.2172 17.984 29.442 18.249 29.6283C17.7982 29.4701 17.2912 29.0376 17.2108 28.797C16.804 27.5789 17.9482 25.2449 20.3633 22.5526C23.1723 19.4213 25.4548 18.1624 26.1419 18.228C26.3314 18.2461 26.5516 18.3613 26.7639 18.5207C26.7246 18.51 26.6859 18.5017 26.6487 18.4981Z" fill="white"/>
<path d="M27.8932 19.2978C27.645 18.7742 26.835 17.9409 26.1797 17.8783C25.253 17.7897 22.8173 19.313 20.1284 22.3105C17.6153 25.1118 16.4406 27.5169 16.9053 28.9085C17.0491 29.3393 17.8767 29.9865 18.4945 30.0335L18.5404 29.3335C18.1718 29.3054 17.6027 28.8309 17.5377 28.6764C17.176 27.5932 18.3848 25.2821 20.6188 22.7919C23.6072 19.4604 25.6979 18.5367 26.1214 18.5772C26.4597 18.6095 27.108 19.2189 27.2922 19.6074L27.8932 19.2978Z" fill="black"/>
<path d="M27.5603 19.4058C26.9935 18.5231 24.8005 19.7416 21.8178 22.9669C18.9006 26.1214 17.6409 28.8883 18.259 29.5393C18.898 30.2123 21.2592 28.8073 23.9283 25.8305C26.5975 22.8536 28.0377 20.1491 27.5603 19.4058Z" fill="#A9C4D3"/>
<path d="M26.8775 22.5294C26.9981 22.3343 27.1101 22.1437 27.213 21.9586C27.9479 20.6357 28.1578 19.7116 27.837 19.2119C27.6758 18.9609 27.4251 18.8125 27.1118 18.7825C26.0066 18.6769 23.9885 20.1131 21.5749 22.723C20.2047 24.2047 19.083 25.7325 18.4163 27.0246C17.9316 27.9641 17.4694 29.2058 18.0206 29.7862C18.1398 29.9118 18.3595 30.0606 18.7285 30.0559C19.8961 30.0411 21.982 28.5143 24.1723 26.0715C25.2595 24.8589 26.2017 23.6233 26.8775 22.5294ZM19.4927 26.5082C20.0601 25.5897 20.8891 24.4764 22.0582 23.2121C24.6973 20.3583 26.3986 19.4189 27.0536 19.4815C27.1949 19.495 27.249 19.5528 27.2803 19.6015C27.5456 20.0146 26.57 22.3691 23.6817 25.5902C21.3758 28.1622 19.492 29.3442 18.7175 29.3541C18.6438 29.355 18.5457 29.3452 18.4958 29.2926C18.3136 29.1008 18.512 28.0958 19.4927 26.5082Z" fill="black"/>
<path d="M26.2944 20.662C25.9806 20.2392 23.9184 22.0861 22.6861 23.4088C20.6414 25.6035 19.2024 27.8223 19.594 28.1859C19.9602 28.5259 21.827 27.0693 23.5854 25.0068C25.2793 23.02 26.5374 20.9896 26.2944 20.662Z" fill="#E4F2F9"/>
<path d="M19.5937 28.1863C19.2021 27.8226 20.6412 25.6038 22.686 23.409C23.9184 22.0862 25.9807 20.2392 26.2945 20.6621C26.3219 20.6991 26.3293 20.759 26.3199 20.8371C25.5593 21.4153 24.5997 22.3285 23.9044 23.0749C22.0178 25.0998 20.6481 27.1439 20.7547 27.734C20.1785 28.1491 19.7497 28.3311 19.5937 28.1863Z" fill="#A9C4D3"/>
<path d="M25.917 22.3242C26.6946 21.0653 26.6602 20.6983 26.506 20.4904C26.4307 20.389 26.3162 20.3287 26.1835 20.3205C25.2518 20.2634 22.521 23.1825 22.4935 23.212C20.8642 24.961 19.2309 27.1757 19.262 28.0247C19.2692 28.2184 19.35 28.3327 19.4166 28.3946C19.6228 28.586 20.0152 28.6823 21.2305 27.7206C22.0141 27.1005 22.9456 26.1794 23.7862 25.1936C24.5988 24.2404 25.3661 23.2097 25.8912 22.3657C25.8999 22.3518 25.9085 22.3379 25.917 22.3242ZM26.0359 20.9052C25.8854 21.4418 24.9001 23.0413 23.3847 24.8189C21.6554 26.8471 20.2089 27.8804 19.7977 27.9509C19.8408 27.4995 20.8194 25.8153 22.8789 23.6047C24.1993 22.1875 25.5568 21.0809 26.0359 20.9052Z" fill="black"/>
</svg>
