<svg height="30" viewBox="0 0 18 22" role="img" fill="white">
	<path d="M15.1393 6.91359L15.0948 6.84324C14.9326 6.58644 14.8705 6.27894 14.9203 5.97931L14.8992 5.83424C14.8502 5.49804 14.9037 5.15488 15.0527 4.84954C15.0731 4.80767 15.1107 4.77671 15.1557 4.76465L15.3676 4.70787C15.4179 4.6944 15.5 4.6441 15.4265 4.55066C15.3691 4.47779 15.294 4.4183 15.2202 4.35977C15.0936 4.25946 14.9705 4.16199 14.9466 4.00487L14.9084 3.75423C14.7329 2.6019 14.8932 1.4247 15.5956 0.494491C15.6962 0.36129 15.8055 0.220837 15.924 0.0736062C15.998 -0.0270489 16.301 -0.0274115 16.3124 0.0907403C16.3198 0.166455 16.1858 0.846976 16.0774 1.37523C16.0342 1.5856 16.1326 1.79978 16.3208 1.90317C16.4793 1.99024 16.5877 2.14663 16.6137 2.32559L16.8348 3.85005C16.8348 3.85005 16.3888 4.07056 16.4932 4.08302C16.5059 4.08453 16.52 4.08577 16.5352 4.08711C16.6449 4.09675 16.8085 4.11113 16.8655 4.2661C17.0372 4.73305 16.6953 4.81141 16.5461 4.84561C16.5013 4.85586 16.4739 4.86214 16.4828 4.87373C16.5368 4.94393 16.6195 4.93969 16.7019 4.93547C16.7849 4.93121 16.8677 4.92697 16.9204 4.99892C17.02 5.13466 17.1235 5.67631 17.2076 6.23424C17.3472 7.16073 17.2492 8.10429 16.983 9.00264L16.7568 9.06325C16.8453 9.0665 17.0191 9.12227 17.0073 9.3194C16.9955 9.51652 17.0559 10.7072 17.0876 11.2778L16.6513 11.2331L17.0163 11.5394C17.0962 11.7874 17.2219 12.3975 17.0857 12.8542C16.8561 12.8819 16.7169 12.8571 16.6433 12.8263C16.8208 12.9488 17.0859 13.1894 17.0763 13.4224C17.0689 13.6036 16.9202 13.5123 16.7434 13.4038C16.6011 13.3165 16.4405 13.2179 16.3206 13.2411C16.2163 13.2612 16.3006 13.3159 16.425 13.3966C16.6213 13.524 16.9175 13.7161 16.73 13.9395C16.5544 14.1487 16.4909 14.0822 16.3418 13.9261C16.2308 13.81 16.0725 13.6443 15.7854 13.5057C15.7325 13.4801 15.6933 13.4609 15.666 13.4474L15.666 13.4474L15.6659 13.4474C15.6312 13.4303 15.6157 13.4227 15.6152 13.4235C15.6149 13.4241 15.6244 13.4303 15.6416 13.4415L15.6416 13.4415L15.6416 13.4415L15.6416 13.4415C15.7988 13.5438 16.5964 14.0627 16.3813 14.5986C16.1487 15.1782 15.2984 15.1312 14.9023 15.0353C15.0659 15.1935 15.696 15.5096 16.4194 14.8915C16.8341 14.7804 17.6659 18.6386 17.8076 19.4694C16.8095 19.4136 14.3415 19.7435 12.4549 21.5097C12.0665 21.4926 11.8629 18.3954 11.8716 18.3526L11.8723 18.3489L11.873 18.3435L11.8739 18.3366C11.8834 18.2601 11.916 17.9956 12.3085 17.8719C12.008 17.8803 12.0409 17.6153 12.3052 17.4721C12.3997 17.421 12.4764 17.3717 12.5078 17.3336C12.5397 17.2948 12.5008 17.3094 12.4244 17.3381C12.2458 17.4052 11.8625 17.5492 11.7019 17.2667C11.5185 16.9441 11.719 16.8783 11.8887 16.8328L12.8689 16.5702C12.9443 16.55 13.107 16.5993 13.1547 16.9583C13.1967 17.2745 13.4626 18.3597 13.6361 19.0444C13.6783 19.2111 13.834 19.4094 13.8891 19.2465C13.9373 19.1038 13.5386 17.5487 13.267 16.5424C13.2082 16.3245 12.9886 16.1268 12.9076 16.3376C12.8314 16.5358 12.1218 16.6222 11.7766 16.6406C11.6995 16.6545 11.574 16.5332 11.689 15.9367C11.7154 15.8077 11.6417 15.8822 11.5773 16.0376L11.561 16.0773C11.4678 16.3044 11.3567 16.5749 11.144 16.4666C10.9847 16.3746 10.8075 15.9345 11.3735 14.9101C10.9736 15.2274 10.7963 15.7719 10.7576 16.0045C10.5573 16.011 10.2503 15.8454 10.6245 15.131C10.5289 15.0758 10.4231 15.259 10.3822 15.3575C10.2666 15.4289 9.99944 15.2863 9.85527 14.1451C9.80087 14.0627 9.79424 14.2692 9.79773 14.3827C9.52437 14.3712 8.965 14.1794 8.5159 13.5594C8.24833 13.19 8.20884 12.6499 8.41614 12.2437C8.50391 12.0717 8.67889 12.0875 8.84146 12.1917L9.16892 12.4017C9.28345 12.4751 9.42363 12.4914 9.56266 12.5077C9.7226 12.5264 9.881 12.5449 9.99708 12.6498C10.0531 12.7005 10.0856 12.7937 10.0814 12.9531C10.0698 13.3926 10.108 13.5049 10.1286 13.5062C10.1288 13.0549 10.3398 12.0474 11.181 11.6281C11.5779 11.3601 11.7155 11.1347 11.7347 11.0554L11.9181 10.9861C11.9212 11.0728 11.9693 11.2674 12.1373 11.3516C12.0134 11.9574 12.2263 11.9578 12.2555 11.3402C12.259 11.1776 12.3468 10.8066 12.6694 10.6232C12.7489 10.5779 12.7525 10.5077 12.757 10.4186C12.7644 10.2719 12.7743 10.0742 13.1299 9.85327L13.3712 9.84921L13.1699 9.70111C13.0755 9.24826 13.2958 8.1804 15.083 7.49139C15.1233 7.48061 15.158 7.47366 15.1877 7.4686C15.4247 7.42824 15.2676 7.1168 15.1393 6.91359ZM16.3106 0.915698C16.3426 0.732494 16.3763 0.53785 16.4029 0.381776C16.4254 0.249103 16.5513 0.159176 16.6111 0.279755C16.6739 0.406419 16.6851 0.425862 16.6829 0.419751L16.7146 0.408174C16.7275 0.403493 16.7417 0.410107 16.7464 0.422946C16.7672 0.480179 16.7763 0.540743 16.7704 0.601373C16.7411 0.901701 16.6464 1.58972 16.6084 1.64792C16.3953 1.97487 16.2432 1.30014 16.3106 0.915698ZM12.4908 10.5006C12.4193 10.5548 12.3338 10.5863 12.2351 10.5729C12.0463 10.5474 11.9503 10.3456 11.8761 10.1702L11.8652 10.1443C11.8028 9.99738 11.7454 9.86212 11.7439 9.68723C11.7435 9.63005 11.775 9.57836 11.8218 9.54553L11.8804 9.50445C11.9614 9.44769 12.0532 9.40827 12.1501 9.38869C12.2442 9.36969 12.3391 9.41665 12.3811 9.50289L12.5437 9.83685C12.6522 10.0596 12.6883 10.351 12.4908 10.5006ZM10.457 10.8835L10.5703 11.0996C10.7116 11.3693 10.9743 11.666 11.2259 11.4944C11.2361 11.4874 11.2463 11.4799 11.2564 11.4717C11.4044 11.353 11.3919 11.1351 11.2968 10.9709C11.2282 10.8525 11.1499 10.7238 11.0812 10.6107C11.0318 10.5294 10.9872 10.4561 10.9547 10.4005C10.9271 10.3533 10.8833 10.3172 10.8309 10.3016C10.7089 10.2652 10.5772 10.3093 10.5017 10.4119L10.4919 10.4253C10.3936 10.5588 10.3801 10.7367 10.457 10.8835ZM9.83439 11.4052C9.61762 11.4402 9.48181 11.6359 9.50175 11.8399C9.51388 11.964 9.82694 12.3611 9.98131 12.3543C10.0971 12.3491 10.4794 11.948 10.3732 11.7763C10.2858 11.635 10.0094 11.377 9.83439 11.4052ZM6.12596 8.13813L6.70558 7.40488C6.73994 7.36141 6.7874 7.33019 6.84092 7.31585C6.89739 7.30072 6.95732 7.30526 7.01087 7.32872L7.02473 7.33479C7.10837 7.37144 7.17082 7.44412 7.19445 7.53232L7.26313 7.78862L7.36415 8.16563L7.42903 8.40777C7.43907 8.44526 7.46596 8.47596 7.5018 8.49085L7.56886 8.51872C7.6771 8.56371 7.7583 8.65641 7.78863 8.76963L7.79131 8.77961C7.80011 8.81247 7.82963 8.83551 7.86365 8.83607C7.91731 8.83696 7.96787 8.86137 8.00193 8.90284L9.19607 10.3566C9.24345 10.4143 9.28141 10.4791 9.30857 10.5486C9.3235 10.5868 9.35299 10.6175 9.39057 10.634L9.46999 10.6688C9.52963 10.6949 9.58198 10.7352 9.62251 10.7862L9.75209 10.9491C9.80968 11.0215 9.78389 11.1287 9.69968 11.1671L9.64296 11.1929C9.44219 11.2842 9.29401 11.4621 9.24044 11.676C9.23204 11.7096 9.23233 11.7448 9.24129 11.7782L9.24174 11.7799C9.25239 11.8196 9.27215 11.8563 9.29944 11.8871L9.53385 12.1515C9.58088 12.2045 9.61491 12.2678 9.63325 12.3362C9.64469 12.3789 9.59731 12.4131 9.5604 12.3888L9.46971 12.3291C9.43891 12.3073 9.39284 12.28 9.33804 12.2475C9.10163 12.1071 8.70264 11.8703 8.66463 11.5716C8.65468 11.4935 8.6937 11.4199 8.73979 11.356C8.7929 11.2823 8.80969 11.2547 8.8617 11.1693L8.86522 11.1635C8.89618 11.1127 8.90512 11.0514 8.88971 10.9939C8.88352 10.9708 8.85974 10.957 8.83661 10.9632L8.82729 10.9657C8.8117 10.9699 8.79816 10.9796 8.78924 10.9931L8.685 11.1501C8.60342 11.273 8.47978 11.3619 8.3373 11.4001C8.30996 11.4074 8.28082 11.4033 8.25662 11.3886L7.19668 10.7457C6.8492 10.535 6.59943 10.1951 6.50212 9.80051C6.44775 9.58004 6.41394 9.355 6.40114 9.12828L6.39341 8.99143C6.39077 8.8346 6.43807 8.681 6.52848 8.55282L6.81551 8.14584C6.82379 8.13409 6.82643 8.11927 6.82271 8.10538L6.82055 8.0973C6.81383 8.07222 6.78805 8.05734 6.76298 8.06406C6.73129 8.07255 6.70327 8.09121 6.68321 8.11717L6.45983 8.40622C6.42171 8.45555 6.36213 8.48347 6.29982 8.48118L6.2646 8.47989C6.1857 8.47699 6.1166 8.42613 6.09037 8.35165C6.06482 8.27909 6.07825 8.19848 6.12596 8.13813ZM6.71283 10.7081C6.50729 10.7989 6.39093 11.0645 6.3386 11.2635C6.31559 11.351 6.32286 11.4426 6.34627 11.53C6.39263 11.703 6.48047 11.8621 6.60217 11.9936L7.24131 12.6837C7.37889 12.795 7.698 12.9856 7.87383 12.8577C7.98146 12.7794 8.08691 12.5932 8.16699 12.4165C8.25254 12.2277 8.25851 12.0151 8.21259 11.8129C8.18537 11.6931 8.11465 11.5877 8.01356 11.5179C7.60969 11.2387 6.98949 10.8188 6.78274 10.7109C6.76083 10.6995 6.73544 10.6981 6.71283 10.7081ZM0.000527294 7.57971L0.0461469 8.02591C0.050896 8.07236 0.0852614 8.11035 0.131006 8.11971C0.136292 8.12079 0.140513 8.12477 0.141909 8.12998L0.153824 8.17444C0.173933 8.24949 0.221445 8.31428 0.286981 8.35601L0.633524 8.5767C0.689272 8.6122 0.757362 8.62267 0.821203 8.60557L0.838481 8.60094C0.85689 8.596 0.875813 8.60693 0.880746 8.62534C0.897534 8.68799 0.94062 8.74031 0.998891 8.7688L1.48772 9.00779C1.57811 9.05199 1.68144 9.06199 1.77862 9.03595L1.79045 9.03278C1.82561 9.02336 1.86174 9.04422 1.87116 9.07937C1.90251 9.19639 1.9747 9.2984 2.07556 9.36552C2.46497 9.62468 3.05537 9.99908 3.16767 9.99719C3.21304 9.99642 3.2884 9.97457 3.37149 9.94361C3.51051 9.89182 3.64664 9.65647 3.74662 9.48363C3.83823 9.32526 3.89949 9.21937 3.90481 9.35519C3.90537 9.36969 3.89474 9.40178 3.87967 9.44725C3.8116 9.6527 3.65302 10.1313 4.02811 10.494C4.10991 10.5731 4.97576 11.3916 5.44467 11.4074C5.61301 11.4131 5.76785 11.3754 5.89708 11.3229C6.13937 11.2245 6.27432 10.9831 6.34907 10.7325L6.3788 10.6328C6.39613 10.5747 6.397 10.5129 6.3813 10.4543L6.37606 10.4348C6.36229 10.3834 6.36642 10.3289 6.38776 10.2802C6.39902 10.2545 6.40334 10.2263 6.39986 10.1985C6.3901 10.1204 6.36696 9.9512 6.33657 9.835C6.29289 9.66794 6.19485 9.4597 6.12164 9.31674C6.09044 9.25584 6.02787 9.22878 5.96386 9.2011C5.92276 9.18333 5.88108 9.16531 5.84673 9.13791C5.82268 9.11872 5.81984 9.09188 5.81699 9.06502C5.81416 9.03825 5.81132 9.01145 5.78748 8.99216C5.56554 8.81261 5.22301 8.70628 4.95376 8.64633C4.84322 8.62172 4.71992 8.65287 4.59957 8.68328C4.43518 8.72481 4.2763 8.76495 4.16293 8.65972C4.11764 8.61767 4.08301 8.56427 4.04876 8.51143C3.99633 8.43055 3.94476 8.351 3.85708 8.3155C3.57064 8.19954 3.21209 8.06236 3.11129 8.05255C3.02802 8.04445 3.0067 8.06584 2.99183 8.08077C2.98299 8.08964 2.97642 8.09622 2.96048 8.09296C2.9212 8.08492 2.89717 8.05067 2.87333 8.01669C2.84847 7.98126 2.82382 7.94612 2.7823 7.94128C2.63578 7.92418 2.45762 7.91287 2.39462 7.94153C2.30818 7.98085 2.27154 8.03512 2.26402 8.05734L2.23496 7.94888C2.21048 7.85752 2.12697 7.79455 2.0324 7.79614C1.99503 7.73207 1.89013 7.61202 1.76949 7.64435C1.73364 7.65395 1.72458 7.67262 1.71794 7.68629C1.71411 7.69418 1.71109 7.7004 1.70419 7.70225L1.68242 7.62099C1.66759 7.56566 1.62648 7.52117 1.57248 7.50204C1.40651 7.44324 1.22435 7.49779 1.05744 7.55388C1.03303 7.56208 1.0079 7.56851 0.982474 7.57238C0.874968 7.58875 0.604283 7.52851 0.398452 7.474C0.292329 7.4459 0.180709 7.44375 0.0746683 7.47217C0.0269099 7.48496 -0.00450157 7.53053 0.000527294 7.57971ZM0.671665 7.41134L0.894885 7.43789C0.956466 7.44522 1.03129 7.43109 1.04672 7.37102C1.07887 7.24588 0.951277 7.15289 0.830781 7.10625L0.683843 7.04938C0.517464 6.98499 0.341052 6.92139 0.163435 6.93813C0.113647 6.94282 0.0740331 6.95737 0.0590908 6.99148C-0.0139447 7.15817 0.221887 7.29204 0.396151 7.34452L0.497606 7.37507C0.554462 7.39219 0.612702 7.40433 0.671665 7.41134ZM7.42049 7.34936L7.4353 7.28557C7.49595 7.02439 7.6044 6.77139 7.80483 6.59328C7.98074 6.43696 8.20858 6.28385 8.44416 6.23975C8.5769 6.20418 8.38349 6.07509 8.25696 6.12872C8.02536 6.22689 7.73833 6.39174 7.58549 6.61205C7.52707 6.69625 7.42617 6.81405 7.33683 6.76384C7.16697 6.66835 7.25358 6.4241 7.3763 6.27273C7.54721 6.06194 7.86591 5.80964 8.39161 5.66604C8.46517 5.64594 8.56735 5.5891 8.54758 5.51545C8.5292 5.44698 8.45273 5.45961 8.38992 5.49249L7.87125 5.76403C7.60063 5.90571 7.09497 6.0879 7.17271 5.79249C7.23618 5.55132 7.9208 5.11834 8.37173 4.94384C8.558 4.87175 8.80559 4.91437 8.95752 5.04403C9.09661 5.16274 9.15428 5.29563 9.22611 5.46379L9.49742 6.09895L9.67149 6.5978L10.129 7.62681L10.6078 8.5087L10.8425 9.23376L11.0552 9.5C11.0637 9.53142 11.0569 9.59655 10.9623 9.60571C10.9983 9.6462 11.0571 9.67569 11.0988 9.69176C11.1181 9.69923 11.1346 9.71318 11.1432 9.73205C11.1651 9.78016 11.1583 9.83645 11.1257 9.87803L11.1186 9.88711C11.1867 9.8805 11.2497 9.92415 11.2674 9.99031L11.2822 10.0453C11.3514 10.1123 11.5008 10.3375 11.6174 10.7487C11.6588 10.8946 11.5221 11.1461 11.4593 11.008C11.322 10.7814 11.0839 10.3823 10.9491 10.138C10.8801 10.013 10.8968 9.87122 10.9361 9.73396C10.9567 9.66191 10.894 9.7268 10.8147 9.80893C10.7533 9.87253 10.6819 9.94646 10.6314 9.97514C10.6187 9.98239 10.6058 9.98997 10.5928 9.99787C10.2121 10.2297 10.2157 10.7391 10.4417 11.1234C10.4931 11.2107 10.5475 11.2934 10.6023 11.3684C10.6614 11.4492 10.6797 11.5739 10.5833 11.6008C10.4812 11.6293 10.3884 11.5661 10.3202 11.4849C10.2566 11.409 10.1822 11.3151 10.1056 11.2094C9.77437 10.7531 9.67153 10.1448 10.0734 9.74925C10.1115 9.71173 10.1488 9.6765 10.1834 9.64382L10.1834 9.64381L10.1834 9.6438C10.2342 9.59584 10.2792 9.55338 10.3123 9.51723L9.85301 9.91693C9.69024 10.0586 9.46642 10.2489 9.29983 10.1118C9.20836 10.0365 8.31779 8.99383 7.73011 8.30059C7.58725 8.13207 7.48391 7.93412 7.42673 7.72073C7.39421 7.59933 7.39206 7.47178 7.42049 7.34936ZM10.2052 5.12137C10.0636 5.14585 9.73903 5.26649 9.58453 5.3685C9.41802 5.46094 9.36724 5.4084 9.3212 5.36076L9.31927 5.35877C8.71898 4.31172 10.8372 3.82803 11.9425 4.31266C12.6054 4.60331 13.2938 4.98306 13.8534 5.32171C14.3147 5.60085 14.6261 6.06629 14.7413 6.59301C14.8571 6.72361 15.082 7.0351 15.0551 7.23626C15.0388 7.35756 14.9812 7.37711 14.8525 7.42082C14.7144 7.46772 14.4944 7.54243 14.1557 7.80051C13.6322 8.19938 13.3357 8.58591 13.2529 8.72932L12.989 8.80003L12.8853 8.26212C12.8754 8.04927 13.0954 7.58355 14.0546 7.42351C14.0302 7.33207 13.9699 7.25407 13.9128 7.18007C13.8251 7.06651 13.7447 6.96237 13.8118 6.83354L13.8678 6.72605C13.6846 6.99738 13.213 7.53991 12.7927 7.53941C12.5301 7.4643 12.7322 7.03707 12.866 6.83285C12.9673 6.68165 12.8936 6.67279 12.7805 6.81535C12.706 6.88919 12.5297 6.93507 12.4206 6.52791C12.2843 6.01895 11.8994 4.80885 11.1211 4.69413C10.8909 4.73966 11.084 4.83203 11.2093 4.87253C11.4588 4.97405 11.9997 5.42444 12.1678 6.41382C12.2884 7.12331 12.3233 7.37366 12.326 7.43072C12.4876 7.55492 12.819 8.05763 12.919 9.14204C12.963 9.72829 12.9479 9.82795 12.9349 9.8045C12.9133 9.92479 12.8201 10.0696 12.6205 9.68671L12.6052 9.65751C12.4377 9.34007 12.0217 9.12658 11.7391 9.34787C11.6742 9.39867 11.6206 9.46043 11.5879 9.53469C11.5801 9.55247 11.5788 9.57239 11.5824 9.59147C11.5913 9.63781 11.6007 9.68065 11.6104 9.72024C11.6521 9.88945 11.7198 10.0519 11.7876 10.2143C11.8408 10.342 11.8941 10.4698 11.9346 10.6007C11.9401 10.6185 11.9277 10.6365 11.9093 10.6342C11.823 10.6233 11.6703 10.5556 11.5427 10.3392C11.3576 10.0251 10.866 8.94462 10.9195 8.46561C10.9623 8.0824 11.4364 7.95671 11.6681 7.94177C11.6932 7.93503 11.7299 7.90096 11.6755 7.81856C11.5076 7.56437 11.1991 7.58449 10.8975 7.60415C10.5851 7.62452 10.2802 7.6444 10.1473 7.35817C10.0238 7.09244 9.91853 6.77762 9.86738 6.42411C9.88183 6.38809 9.89789 6.35803 9.91517 6.33134C10.0047 6.19297 9.91867 6.05482 9.75761 6.08986C9.63272 6.07618 9.40414 5.90172 9.53709 5.64386C9.6549 5.41535 9.89046 5.31416 10.0942 5.27867C10.2407 5.25315 10.3536 5.1118 10.2052 5.12137ZM17.5151 19.9862L17.5151 19.9862C17.5157 19.9876 17.5266 20.0146 17.4589 20.1008C17.3905 20.1879 17.2635 20.3054 17.067 20.4459C16.676 20.7254 16.0794 21.0462 15.3697 21.3301C14.9843 21.4843 14.6156 21.6076 14.2828 21.6989C13.8089 21.6789 13.6016 21.4322 13.7377 21.1192C14.0927 20.9103 14.5358 20.6925 15.0347 20.4928C15.7445 20.2089 16.3978 20.0297 16.8735 19.9625C17.1128 19.9286 17.2858 19.9261 17.3954 19.942C17.5038 19.9577 17.5145 19.9848 17.5151 19.9862ZM13.7377 21.1192C13.8508 20.859 14.2013 20.553 14.8332 20.2933C14.8679 20.279 14.9028 20.2649 14.9379 20.2508C16.4286 19.6545 17.7553 19.4668 17.9013 19.8317C17.9843 20.0391 16.8812 20.8656 15.3906 21.4619C14.9383 21.6428 14.5637 21.7107 14.2828 21.6989C14.0028 21.7757 13.7483 21.8298 13.5309 21.8605C13.2917 21.8944 13.1187 21.8969 13.009 21.881C12.9006 21.8652 12.8899 21.8382 12.8894 21.8368L12.8893 21.8367C12.8888 21.8354 12.8779 21.8084 12.9455 21.7222C13.0139 21.6351 13.141 21.5176 13.3375 21.3771C13.4536 21.2941 13.5878 21.2075 13.7377 21.1192Z" />
</svg>
