<svg width="19" height="19" viewBox="0 0 19 19" fill="none" xmlns="http://www.w3.org/2000/svg">
<path d="M14.9766 8.47656C14.9766 12.0664 12.0664 14.9766 8.47656 14.9766C4.88671 14.9766 1.97656 12.0664 1.97656 8.47656C1.97656 4.88671 4.88671 1.97656 8.47656 1.97656C12.0664 1.97656 14.9766 4.88671 14.9766 8.47656Z" fill="white"/>
<path d="M9.57791 4.38929C12.1529 4.41467 14.3979 6.49733 14.3605 9.05831C14.3608 10.3931 13.7626 11.3668 12.9574 12.3852C12.7502 12.6473 12.5799 13.0793 12.2881 13.2709C11.8732 13.5433 11.7778 13.2999 11.3574 13.4172C10.5619 13.639 10.3766 14.7002 9.57789 14.9071C8.774 14.652 8.52268 13.4153 7.63652 13.4912C7.30984 13.5193 7.17755 13.7039 6.86767 13.487C6.5665 13.2762 6.41018 12.7012 6.19833 12.4015C5.44407 11.3346 4.77716 10.4269 4.79531 9.05833C4.82134 6.54442 6.95465 4.35272 9.57791 4.38929ZM9.57791 4.17722C8.26212 4.1584 6.97259 4.7118 6.04252 5.60686C5.09849 6.50187 4.58747 7.78339 4.57812 9.05831C4.58867 10.4946 5.26887 11.487 6.04252 12.6351C6.20716 13.0208 6.40283 13.9272 6.80741 14.0752C7.34275 14.2709 7.12025 13.8343 7.66352 13.737C8.55285 13.5777 8.76607 14.9748 9.57789 15.1768C10.3812 14.9007 10.6021 13.7028 11.4922 13.675C11.7182 13.668 11.9313 13.8955 12.1856 13.8343C12.616 13.7307 12.9433 12.8956 13.1133 12.5885C13.9232 11.5129 14.5985 10.4457 14.5776 9.05831C14.5969 7.77376 14.0301 6.51484 13.1133 5.60686C12.1965 4.68523 10.8838 4.18634 9.57791 4.17722Z" fill="white"/>
<path d="M8.97487 7.23906C8.97487 7.65697 8.80149 8.8424 8.33119 8.83453C7.84878 8.82648 7.6875 7.68705 7.6875 7.23906C7.6875 6.79107 7.84991 5.65165 8.33119 5.64359C8.80258 5.63571 8.97487 6.82118 8.97487 7.23906Z" fill="white"/>
<path d="M11.4671 7.23906C11.4671 7.65697 11.2937 8.8424 10.8234 8.83453C10.341 8.82648 10.1797 7.68705 10.1797 7.23906C10.1797 6.79107 10.3421 5.65165 10.8234 5.64359C11.2948 5.63571 11.4671 6.82118 11.4671 7.23906Z" fill="white"/>
<path d="M9.57905 12.7873C7.51475 12.7934 5.71051 10.8032 5.71094 8.87333C5.71094 8.80306 5.76929 8.74609 5.84127 8.74609C5.91325 8.74609 5.9716 8.80308 5.9716 8.87333C5.97141 10.7751 7.62449 12.4045 9.57905 12.4045C11.5322 12.4045 13.1869 10.7761 13.1865 8.87333C13.1865 8.80306 13.2449 8.74609 13.3169 8.74609C13.3889 8.74609 13.4472 8.80308 13.4472 8.87333C13.4474 10.803 11.6434 12.7934 9.57905 12.7873Z" fill="white"/>
<path d="M6.40132 9.26478C6.3614 9.2648 6.32203 9.24698 6.29645 9.21323C6.19024 9.07311 6.02378 8.99276 5.83981 8.99276C5.83973 8.99276 5.83968 8.99276 5.8396 8.99276C5.65585 8.99278 5.4896 9.07317 5.38359 9.21317C5.3408 9.26966 5.25919 9.28164 5.20131 9.23987C5.14343 9.19809 5.13118 9.11842 5.17397 9.06192C5.32963 8.85633 5.57219 8.73836 5.83951 8.73828C5.83962 8.73828 5.83971 8.73828 5.83981 8.73828C6.10729 8.73828 6.35008 8.85621 6.50598 9.06186C6.54882 9.11832 6.53662 9.19803 6.47876 9.23983C6.45543 9.25667 6.42826 9.26478 6.40132 9.26478Z" fill="white"/>
<path d="M13.8778 9.2726C13.838 9.27262 13.7986 9.25477 13.773 9.22105C13.6669 9.08094 13.5003 9.00057 13.3164 9.00057C13.3163 9.00057 13.3162 9.00057 13.3161 9.00057C13.1324 9.00059 12.9661 9.08099 12.8601 9.22099C12.8173 9.27749 12.7356 9.2894 12.6779 9.24768C12.62 9.2059 12.6077 9.12624 12.6505 9.06973C12.8062 8.86421 13.0487 8.74618 13.3161 8.74609C13.3161 8.74609 13.3163 8.74609 13.3164 8.74609C13.5838 8.74609 13.8266 8.86402 13.9825 9.06967C14.0254 9.12613 14.0131 9.20584 13.9553 9.24764C13.932 9.26448 13.9048 9.2726 13.8778 9.2726Z" fill="white"/>
</svg>
