<svg width="120" height="83" viewBox="0 0 120 83" fill="none" xmlns="http://www.w3.org/2000/svg">
<path d="M112.743 28.4548C114.037 21.8868 111.816 13.8488 105.336 13.9088C95.2844 14.0008 85.1324 14.1178 75.5534 10.6628C67.0954 7.61181 59.4044 3.94681 50.2974 3.15381C35.2564 1.84481 12.6424 7.90082 6.49443 23.3398C5.60443 25.5758 6.06243 31.2388 8.21643 33.7918C7.40843 38.1158 7.33943 42.7008 7.33743 46.4658C7.33643 47.5338 7.53743 48.9428 7.93043 50.4098C7.82043 50.5668 7.69444 50.7088 7.59244 50.8738C4.93444 55.1928 4.53143 63.0308 7.99043 67.0928C9.76943 69.1818 11.5204 70.9978 14.4554 70.7218C16.4784 70.5318 17.9844 69.4648 19.0934 68.0048C29.5604 65.0548 42.1484 65.4458 52.5714 66.5188C59.0594 67.1868 65.4094 68.5158 71.6434 70.4338C77.8244 72.3358 83.7094 75.4268 90.1544 76.3548C101.032 77.9208 108.802 70.5178 110.511 60.8008C115.107 53.8348 112.971 45.4288 113.822 37.3978C114.015 35.5718 113.804 31.7368 112.743 28.4548Z" fill="#71B037"/>
<path d="M68.1774 32.3829C68.1374 32.2449 68.1134 32.1089 68.0664 31.9699C66.6544 27.7989 62.3454 26.1249 58.3384 26.7429C55.8044 26.7359 53.3834 27.5389 51.9354 29.4389C51.5814 29.9039 51.3124 30.3819 51.0804 30.8649C48.8144 32.5769 47.4844 36.3489 48.2984 38.9889C49.0284 41.3559 50.8774 43.1789 53.1564 44.3499C53.5564 44.6839 53.9814 44.9949 54.4624 45.2519C56.0724 46.1119 57.5644 46.2159 58.8694 45.8109C60.6734 45.8629 62.4404 45.5459 63.9284 44.7879C68.2024 42.6119 69.9894 36.7409 68.1774 32.3829ZM58.6654 35.8589C58.6114 35.8469 58.5604 35.8279 58.5064 35.8149C58.4944 35.2869 58.4304 34.7649 58.3104 34.2579C58.5914 34.1899 58.8614 34.1359 59.1114 34.0969C58.8654 34.6309 58.7084 35.2389 58.6654 35.8589Z" fill="#4180FF"/>
<path d="M85.7494 36.2649C83.2564 33.0279 79.0114 30.6219 75.8314 28.0629C72.2754 25.2009 68.7464 22.3019 65.1624 19.4749C62.9984 17.7679 61.4064 16.2859 58.5314 16.6889C55.1434 17.1639 51.3454 19.4159 48.4494 21.1469C42.4764 24.7179 37.4924 29.4949 33.9264 35.4819C33.4594 36.2669 33.4814 38.2069 34.6004 38.4709C34.6974 39.0099 34.8334 39.5699 35.0514 40.1749C36.5094 44.2149 39.5484 47.8149 43.0034 50.5539C44.4894 52.8219 46.4784 54.7489 48.7934 56.1819C51.9984 58.1679 55.4344 58.9969 58.8554 58.9379C59.2724 60.0009 60.0304 60.7289 61.1124 60.5619C65.7134 59.8499 69.7454 57.7679 72.5894 54.0039C73.0884 53.6409 73.5774 53.2639 74.0534 52.8689C74.4364 52.5509 74.8244 52.2179 75.2134 51.8739C77.7734 50.4549 80.2704 48.7909 82.6894 46.9869C86.4164 44.2089 89.1174 40.6379 85.7494 36.2649ZM58.4554 23.5749C62.8504 23.3089 68.7344 30.2489 71.8504 32.8219C72.9324 33.7149 74.0134 34.6089 75.0954 35.5029C73.7874 36.3009 72.7804 37.7199 72.2104 39.1089C71.1924 41.5899 71.3944 44.3519 70.1454 46.7689C66.4414 48.2509 62.6034 49.1069 59.1624 48.9609C55.3134 48.7979 50.4574 47.3189 46.4914 44.7819C46.3594 44.5399 46.2204 44.3039 46.1084 44.0489C44.4994 40.3559 46.0314 35.2419 45.9184 31.1989C45.9064 30.7729 45.8234 30.3049 45.6834 29.8459C45.9504 29.6649 46.2034 29.4679 46.4754 29.2929C49.5144 27.3269 54.7214 23.7999 58.4554 23.5749ZM40.4834 37.5679C40.4574 37.8919 40.4334 38.2159 40.4104 38.5389C40.2994 38.3249 40.2144 38.0989 40.1174 37.8789C40.2354 37.7739 40.3574 37.6699 40.4834 37.5679Z" fill="#E3C338"/>
<path d="M119.263 37.9058C118.917 48.6098 118.58 59.3138 118.212 70.0168C118.174 71.1318 117.954 72.2408 117.812 73.3518C117.496 75.8368 117.032 78.0048 113.61 77.7178C112.474 77.6228 111.261 78.6298 110.061 79.0728C96.1336 84.2068 82.7436 83.2008 70.0766 75.3108C57.5346 67.4998 44.0956 64.8968 29.5996 67.8488C23.5306 69.0848 18.1586 71.8558 13.1136 75.3358C10.7426 76.9708 8.45958 78.7378 6.04258 80.2998C3.35658 82.0368 1.13658 80.8678 0.834576 77.6608C0.774576 77.0278 0.876581 76.3818 0.865581 75.7418C0.629581 60.5478 0.666583 45.3418 0.0295829 30.1648C-0.286417 22.6428 1.89658 17.1508 8.15059 12.7318C18.3566 5.51983 29.5156 1.30082 41.9076 0.228824C50.9756 -0.555176 59.7316 0.668826 68.2576 4.00283C78.1636 7.87683 88.4536 10.0718 99.1476 10.1728C104.332 10.2218 109.363 9.64083 114.091 7.33283C117.798 5.52283 119.358 6.47284 119.253 10.5428C119.122 15.6598 118.832 20.7728 118.717 25.8908C118.627 29.8888 118.699 33.8908 118.699 37.8908C118.887 37.8958 119.075 37.9008 119.263 37.9058ZM116.108 39.6768C116.205 39.6768 116.302 39.6768 116.399 39.6768C116.399 30.5578 116.305 21.4378 116.46 12.3218C116.503 9.80283 115.676 9.48983 113.705 10.3888C106.555 13.6498 98.9556 13.6738 91.5396 12.4388C83.3726 11.0788 75.1176 9.35784 67.3866 6.48684C58.0706 3.02683 48.7086 1.93983 39.1026 3.23383C26.1366 4.97983 14.4136 9.73983 5.01558 19.2948C3.45358 20.8838 2.81858 22.4758 2.87658 24.7838C3.26758 40.4548 3.45959 56.1308 3.74559 71.8038C3.78059 73.6998 3.99158 75.5928 4.12158 77.4868C5.89158 76.5378 7.86059 75.8378 9.40059 74.6018C20.4296 65.7488 33.1856 63.4478 46.8746 64.3378C56.6226 64.9718 65.0266 69.1528 73.1726 74.0438C83.7686 80.4058 95.1806 80.8678 106.508 77.3878C116.417 74.3438 115.358 74.8638 116.001 64.6328C116.524 56.3438 116.108 47.9968 116.108 39.6768Z" fill="black"/>
<path d="M60.2058 9.49084C61.2458 10.1048 62.2888 10.5438 63.1178 11.2378C72.4198 19.0338 81.9028 26.6428 89.2168 36.5058C90.2418 37.8878 91.7738 38.8878 92.8578 40.2358C93.9138 41.5498 94.6238 42.9178 92.2648 43.9788C82.8258 48.2228 75.1908 55.1448 66.9928 61.2268C62.2998 64.7088 60.8948 64.8658 55.9908 61.1168C50.0268 56.5578 44.3218 51.6618 38.4238 47.0158C35.5458 44.7488 32.5518 42.6128 29.4898 40.6018C24.9358 37.6098 24.6998 35.6048 28.8798 32.4598C38.4568 25.2558 48.0628 18.0918 57.6748 10.9338C58.4138 10.3828 59.2848 10.0088 60.2058 9.49084ZM88.8388 41.5668C88.3548 40.8288 88.0518 40.2768 87.6638 39.7928C85.6718 37.3008 83.8858 34.5908 81.6078 32.3918C75.5218 26.5168 69.2418 20.8408 62.9908 15.1398C61.6728 13.9378 60.2728 13.0138 58.3428 14.4668C49.4068 21.1928 40.4148 27.8448 31.4108 34.4798C29.5168 35.8758 29.9138 36.9058 31.5848 38.1098C34.9508 40.5338 38.3178 42.9648 41.5718 45.5348C46.8378 49.6938 51.9728 54.0178 57.2398 58.1768C61.0788 61.2078 61.7428 61.1208 65.5848 58.3618C72.8468 53.1478 80.1388 47.9748 87.4108 42.7758C87.8898 42.4338 88.3128 42.0158 88.8388 41.5668Z" fill="black"/>
<path d="M74.3957 38.4268C74.2377 43.4598 72.7027 46.2968 68.1747 47.6868C64.7057 48.7518 60.9887 49.3908 57.3657 49.4658C53.5287 49.5458 50.3077 47.5688 48.0937 44.3148C43.8737 38.1118 43.8347 35.3068 47.7697 29.8538C51.2777 24.9928 57.8607 22.4378 63.4497 24.1318C66.1657 24.9548 68.7157 26.3748 71.2627 27.6768C71.8527 27.9788 72.3347 28.8538 72.5027 29.5528C73.2087 32.4928 73.7767 35.4658 74.3957 38.4268ZM58.8727 46.5248C60.8207 46.1978 63.0577 45.9808 65.2077 45.4298C70.0647 44.1838 71.4607 42.0528 70.9267 37.1238C70.5637 33.7728 69.8917 33.1908 66.5747 34.4418C62.7107 35.8988 58.9377 37.6458 55.2597 39.5278C53.7097 40.3208 52.5027 41.7848 51.1407 42.9438C52.8347 44.0398 54.4837 45.2168 56.2467 46.1888C56.8877 46.5418 57.8007 46.4058 58.8727 46.5248ZM60.0377 27.0208C54.9467 27.0548 51.1667 29.2428 49.0077 33.9298C48.7217 34.5518 48.8337 35.3568 48.7617 36.0768C49.3347 35.8508 49.9277 35.6619 50.4787 35.3919C54.1787 33.5739 57.8757 31.7488 61.5617 29.9028C62.5127 29.4268 63.4227 28.8709 64.3517 28.3509C63.2317 27.9079 62.1187 27.4428 60.9857 27.0358C60.7047 26.9348 60.3557 27.0208 60.0377 27.0208Z" fill="black"/>
<path d="M7.77173 70.9978C7.40673 70.9978 7.04672 70.8318 6.81172 70.5178C6.41672 69.9878 6.52572 69.2388 7.05472 68.8438C14.9027 62.9888 24.6097 59.8948 34.4037 60.1518C35.0637 60.1688 35.5857 60.7168 35.5687 61.3768C35.5517 62.0368 34.9717 62.5628 34.3437 62.5418C25.0867 62.2988 15.9067 65.2238 8.48572 70.7608C8.27072 70.9198 8.01973 70.9978 7.77173 70.9978Z" fill="black"/>
<path d="M8.86849 21.4488C8.56149 21.4488 8.25648 21.3318 8.02248 21.0978C7.55548 20.6308 7.55549 19.8738 8.02349 19.4068C10.6095 16.8238 13.7925 14.7978 17.2285 13.5498C17.8465 13.3248 18.5345 13.6448 18.7605 14.2658C18.9855 14.8868 18.6655 15.5728 18.0445 15.7978C14.9355 16.9278 12.0545 18.7608 9.71348 21.0988C9.48048 21.3318 9.17449 21.4488 8.86849 21.4488Z" fill="black"/>
<path d="M27.9965 11.4848C27.4525 11.4848 26.9605 11.1108 26.8325 10.5578C26.6845 9.9148 27.0855 9.27179 27.7295 9.12379L32.9095 7.92779C33.5475 7.78279 34.1955 8.17979 34.3435 8.82379C34.4915 9.46679 34.0905 10.1088 33.4475 10.2578L28.2655 11.4538C28.1765 11.4748 28.0865 11.4848 27.9965 11.4848Z" fill="black"/>
<path d="M93.2718 76.1808C89.2638 76.1808 85.2558 75.5868 81.4458 74.3968C80.8148 74.1998 80.4638 73.5298 80.6598 72.8998C80.8568 72.2698 81.5238 71.9178 82.1578 72.1148C89.2528 74.3298 97.0768 74.3508 104.187 72.1758C104.815 71.9808 105.486 72.3378 105.679 72.9688C105.873 73.6008 105.517 74.2688 104.885 74.4618C101.14 75.6078 97.2058 76.1808 93.2718 76.1808Z" fill="black"/>
<path d="M102.292 17.7528C101.124 17.7528 99.9578 17.6918 98.7988 17.5668C98.1428 17.4968 97.6678 16.9078 97.7378 16.2508C97.8078 15.5948 98.3848 15.1178 99.0538 15.1898C103.7 15.6848 108.474 15.1028 112.86 13.5058C113.485 13.2768 114.168 13.5998 114.393 14.2198C114.62 14.8408 114.3 15.5268 113.678 15.7528C110.045 17.0748 106.166 17.7528 102.292 17.7528Z" fill="black"/>
<path d="M81.3484 56.8398C80.9724 56.8398 80.6014 56.6628 80.3684 56.3318C79.9894 55.7918 80.1194 55.0458 80.6594 54.6668L90.2524 47.9298C90.7914 47.5508 91.5394 47.6808 91.9174 48.2208C92.2974 48.7618 92.1664 49.5068 91.6254 49.8868L82.0354 56.6238C81.8264 56.7698 81.5854 56.8398 81.3484 56.8398Z" fill="black"/>
<path d="M81.4368 24.5899C81.1858 24.5899 80.9328 24.5109 80.7168 24.3469L75.9508 20.7369C75.4258 20.3379 75.3218 19.5879 75.7208 19.0619C76.1178 18.5349 76.8688 18.4299 77.3968 18.8309L82.1608 22.4409C82.6878 22.8399 82.7908 23.5889 82.3918 24.1159C82.1558 24.4269 81.7988 24.5899 81.4368 24.5899Z" fill="black"/>
<path d="M29.9638 29.0078C29.7888 29.0078 29.6118 28.9698 29.4438 28.8888C28.8498 28.6008 28.6008 27.8858 28.8878 27.2918C29.7358 25.5398 31.4528 24.2338 33.3678 23.8838C34.0168 23.7688 34.6408 24.1958 34.7588 24.8458C34.8768 25.4958 34.4468 26.1178 33.7968 26.2368C32.6178 26.4518 31.5618 27.2558 31.0398 28.3338C30.8338 28.7588 30.4068 29.0078 29.9638 29.0078Z" fill="black"/>
<path d="M6.47861 36.9919C6.03961 36.9919 5.61761 36.7499 5.40761 36.3309C5.11261 35.7399 5.35161 35.0219 5.94261 34.7269L13.1166 31.1399C13.7096 30.8429 14.4256 31.0849 14.7206 31.6749C15.0156 32.2659 14.7766 32.9839 14.1856 33.2789L7.01161 36.8659C6.84061 36.9509 6.65761 36.9919 6.47861 36.9919Z" fill="black"/>
<path d="M7.6734 40.9768C7.2874 40.9768 6.9084 40.7898 6.6774 40.4448C6.3114 39.8958 6.4594 39.1538 7.0094 38.7868L10.5964 36.3958C11.1454 36.0278 11.8874 36.1778 12.2544 36.7278C12.6204 37.2768 12.4724 38.0198 11.9224 38.3858L8.3354 40.7768C8.1324 40.9118 7.9014 40.9768 7.6734 40.9768Z" fill="black"/>
<path d="M5.68054 52.1358C5.20554 52.1358 4.75653 51.8518 4.57053 51.3838C4.32453 50.7708 4.62353 50.0748 5.23553 49.8298L7.22852 49.0328C7.84052 48.7908 8.53653 49.0858 8.78253 49.6998C9.02753 50.3128 8.72953 51.0088 8.11553 51.2538L6.12353 52.0498C5.97853 52.1078 5.82854 52.1358 5.68054 52.1358Z" fill="black"/>
<path d="M107.803 62.5689C105.827 62.5689 103.854 62.4009 101.923 62.0629C101.273 61.9499 100.837 61.3299 100.95 60.6799C101.063 60.0299 101.684 59.5929 102.334 59.7079C106.503 60.4349 110.887 60.3159 115.012 59.3619C115.655 59.2169 116.297 59.6139 116.447 60.2569C116.595 60.8999 116.195 61.5419 115.551 61.6909C113.028 62.2759 110.414 62.5689 107.803 62.5689Z" fill="black"/>
<path d="M103.719 58.5128C103.083 58.5128 102.554 58.0108 102.526 57.3688C102.497 56.7088 103.008 56.1508 103.668 56.1228L112.835 55.7238C113.536 55.7138 114.054 56.2068 114.082 56.8668C114.111 57.5268 113.6 58.0848 112.94 58.1128L103.773 58.5118C103.754 58.5118 103.736 58.5128 103.719 58.5128Z" fill="black"/>
<path d="M108.502 53.3458C107.878 53.3458 107.352 52.8618 107.31 52.2298C107.267 51.5718 107.764 51.0018 108.424 50.9578L114.402 50.5598C115.059 50.5028 115.632 51.0138 115.675 51.6728C115.718 52.3318 115.22 52.9008 114.561 52.9448L108.583 53.3428C108.556 53.3448 108.529 53.3458 108.502 53.3458Z" fill="black"/>
</svg>
