<svg width="233" height="245" viewBox="0 0 233 245" fill="none" xmlns="http://www.w3.org/2000/svg">
<path d="M134.588 110.04C135.6 110.177 136.475 109.854 137.209 109.298C139.233 107.766 138.862 104.779 137.751 102.497L136.085 99.0744C135.654 98.1906 134.681 97.7094 133.717 97.9041C132.724 98.1048 131.783 98.5087 130.953 99.0904L130.353 99.5114C129.873 99.8477 129.55 100.378 129.555 100.963C129.57 102.861 130.229 104.303 130.91 105.912C131.67 107.71 132.654 109.778 134.588 110.04Z" fill="#797979"/>
<path d="M177.422 4.85701C177.097 6.78508 176.618 9.55126 176.193 11.9682C175.602 15.326 175.973 21.177 178.755 19.2059C179.052 18.9956 179.283 18.7619 179.402 18.5793C179.791 17.983 180.762 10.9324 181.062 7.85479C181.122 7.23348 181.029 6.61285 180.816 6.02635C180.768 5.89478 180.622 5.82701 180.491 5.87497L180.165 5.9936C180.188 6.05623 180.073 5.85699 179.429 4.559C179.295 4.28814 179.171 4.07283 179.053 3.90204C178.519 3.1322 177.579 3.93354 177.422 4.85701Z" fill="#797979"/>
<path d="M164.348 72.5383L163.892 71.8173C162.23 69.1858 161.594 66.0347 162.104 62.9643L161.888 61.4776C161.386 58.0324 161.934 54.5158 163.461 51.3868C163.67 50.9578 164.055 50.6405 164.516 50.517L166.688 49.9351C167.203 49.7971 168.045 49.2816 167.291 48.3241C165.696 46.2974 162.762 45.2806 162.374 42.7311L161.602 37.6639C160.052 27.4906 161.449 17.095 167.519 8.78498C168.938 6.84109 170.557 4.72229 172.389 2.44532C173.148 1.41385 176.252 1.41013 176.37 2.6209C176.445 3.39679 175.072 10.3704 173.961 15.7838C173.519 17.9396 174.527 20.1343 176.455 21.1939C178.08 22.086 179.191 23.6887 179.457 25.5226L181.723 41.1445C181.723 41.1445 177.153 43.4043 178.222 43.5319C179.292 43.6595 181.372 43.6 182.037 45.4081C184.325 51.6273 177.72 51.1197 178.116 51.6348C179.226 53.079 181.523 51.4486 182.6 52.9176C183.62 54.3086 184.681 59.8592 185.543 65.5767C186.974 75.0709 185.97 84.74 183.242 93.9459L180.924 94.567C181.83 94.6003 183.612 95.1718 183.491 97.1919C183.369 99.2119 183.989 111.413 184.313 117.261L179.843 116.803L183.582 119.941C184.401 122.482 185.69 128.735 184.294 133.415C181.941 133.698 180.514 133.444 179.761 133.129C181.579 134.384 184.296 136.85 184.198 139.238C184.06 142.587 179.21 136.848 176.454 137.379C173.698 137.911 183.788 140.797 180.649 144.537C177.51 148.276 177.865 143.419 170.969 140.091C164.073 136.763 180.056 143.867 177.076 151.291C174.692 157.23 165.978 156.749 161.919 155.766C163.596 157.387 170.053 160.626 177.466 154.292C181.716 153.153 190.239 192.691 191.692 201.204C181.463 200.632 156.172 204.014 136.84 222.113C132.859 221.937 130.773 190.198 130.863 189.76C130.952 189.322 130.949 186.218 135.34 184.834C135.234 184.837 135.13 184.839 135.028 184.839C132.115 184.856 132.454 182.243 135.03 180.885C136.124 180.308 137.031 179.744 137.381 179.318C138.475 177.99 131.473 182.765 129.123 178.632C127.244 175.327 129.299 174.652 131.037 174.186L141.082 171.494C141.855 171.287 143.522 171.793 144.011 175.471C144.442 178.712 147.166 189.833 148.944 196.849C149.377 198.557 150.972 200.59 151.536 198.92C152.031 197.458 147.945 181.522 145.162 171.21C144.559 168.976 142.309 166.951 141.479 169.111C140.698 171.142 133.426 172.027 129.888 172.216C129.099 172.359 127.813 171.116 128.991 165.003C129.262 163.681 128.507 164.444 127.847 166.037C126.855 168.43 125.715 171.609 123.407 170.433C121.774 169.491 119.958 164.981 125.758 154.483C121.66 157.734 119.843 163.314 119.446 165.698C117.394 165.764 114.248 164.068 118.083 156.746C117.103 156.181 116.019 158.058 115.6 159.068C114.415 159.799 111.677 158.338 110.2 146.643C109.642 145.799 109.575 147.915 109.61 149.079C106.809 148.96 101.077 146.995 96.4747 140.642C93.7328 136.856 93.3281 131.322 95.4525 127.158C96.3518 125.396 98.145 125.558 99.8108 126.626L103.782 129.172C105.914 130.539 108.655 130.072 111.03 130.948C111.975 131.296 112.574 132.27 112.517 134.428C112.399 138.932 112.79 140.083 113 140.096C113.003 135.471 115.165 125.148 123.785 120.85C127.853 118.104 129.263 115.794 129.459 114.982L131.339 114.271C131.37 115.16 131.863 117.154 133.585 118.017C133.101 120.382 132.219 129.39 136.55 146.854C136.824 147.961 137.879 147.799 137.686 146.675C136.564 140.114 134.093 132.808 134.796 117.9C134.833 116.234 135.732 112.432 139.038 110.552C141.194 109.326 137.899 106.302 143.756 102.663L146.23 102.621L144.167 101.104C143.199 96.4629 145.457 85.52 163.772 78.4593C164.184 78.3489 164.539 78.2777 164.844 78.2257C167.273 77.8122 165.663 74.6207 164.348 72.5383Z" fill="#797979"/>
<path d="M117.528 115.435L116.368 113.221C115.579 111.716 115.718 109.893 116.724 108.525L116.825 108.387C117.599 107.336 118.948 106.884 120.199 107.257C120.736 107.417 121.185 107.787 121.468 108.271C122.264 109.632 123.764 112.029 124.973 114.116C125.947 115.798 126.076 118.031 124.559 119.248C124.455 119.331 124.351 119.409 124.246 119.48C121.668 121.239 118.976 118.199 117.528 115.435Z" fill="#797979"/>
<path d="M109.987 118.568C107.765 118.926 106.374 120.931 106.578 123.023C106.702 124.294 109.91 128.364 111.492 128.293C112.679 128.24 116.596 124.13 115.508 122.371C114.613 120.923 111.78 118.278 109.987 118.568Z" fill="#797979"/>
<path d="M77.9216 77.5724L71.982 85.0864C71.493 85.7049 71.3554 86.5309 71.6172 87.2745C71.886 88.0377 72.5941 88.5589 73.4027 88.5886L73.7635 88.6018C74.402 88.6253 75.0126 88.3393 75.4033 87.8337L77.6923 84.8716C77.8979 84.6056 78.1851 84.4144 78.5098 84.3274C78.7667 84.2586 79.0309 84.4111 79.0997 84.668L79.1219 84.7508C79.16 84.8931 79.133 85.0451 79.0481 85.1655L76.1067 89.3359C75.1803 90.6495 74.6956 92.2236 74.7226 93.8307L74.8018 95.233C74.933 97.5563 75.2794 99.8625 75.8366 102.122C76.8338 106.165 79.3933 109.648 82.9542 111.808L93.8159 118.395C94.0639 118.546 94.3625 118.588 94.6427 118.513C96.1027 118.122 97.3698 117.211 98.2057 115.952L99.2739 114.343C99.3654 114.205 99.5041 114.105 99.6639 114.062L99.7594 114.037C99.9964 113.973 100.24 114.114 100.304 114.351C100.461 114.94 100.37 115.568 100.053 116.089L100.016 116.149C99.4835 117.024 99.3115 117.306 98.7672 118.061C98.2949 118.716 97.895 119.47 97.997 120.271C98.4768 124.041 104.57 126.85 106.247 128.033L107.176 128.645C107.555 128.894 108.04 128.544 107.923 128.106C107.735 127.405 107.386 126.757 106.904 126.213L104.502 123.504C104.223 123.189 104.02 122.813 103.911 122.406L103.906 122.388C103.815 122.045 103.812 121.685 103.898 121.341C104.447 119.149 105.965 117.326 108.022 116.39L108.604 116.125C109.467 115.733 109.731 114.634 109.141 113.892L107.813 112.222C107.398 111.7 106.861 111.287 106.25 111.02L105.436 110.663C105.051 110.494 104.749 110.18 104.596 109.788C104.318 109.076 103.928 108.412 103.443 107.821L91.206 92.9228C90.8569 92.4978 90.3388 92.2477 89.7889 92.2386C89.4404 92.2328 89.1379 91.9967 89.0476 91.66L89.0202 91.5577C88.7094 90.3976 87.8772 89.4476 86.7681 88.9866L86.0809 88.701C85.7136 88.5483 85.4381 88.2338 85.3352 87.8496L84.6703 85.3682L83.6351 81.5049L82.9313 78.8784C82.6891 77.9745 82.0492 77.2297 81.1921 76.8542L81.05 76.792C80.5013 76.5516 79.8871 76.5051 79.3085 76.6601C78.7601 76.807 78.2737 77.127 77.9216 77.5724Z" fill="#797979"/>
<path d="M78.0077 111.417C75.8942 112.343 74.6984 115.072 74.1612 117.114C73.9254 118.01 74 118.95 74.2398 119.845C74.7149 121.618 75.615 123.249 76.8622 124.595L83.4118 131.668C84.8216 132.809 88.0917 134.762 89.8936 133.451C90.9965 132.649 92.0771 130.74 92.8977 128.93C93.7744 126.995 93.8355 124.816 93.365 122.744C93.0861 121.516 92.3614 120.437 91.3254 119.721C87.1792 116.855 80.8081 112.541 78.7011 111.446C78.4835 111.333 78.2323 111.319 78.0077 111.417Z" fill="#797979"/>
<path d="M9.6807 83.9377L9.21321 79.3653C9.16168 78.8612 9.48357 78.3943 9.97298 78.2632C11.0596 77.972 12.2035 77.994 13.291 78.282C15.4002 78.8406 18.1741 79.4579 19.2758 79.2901C19.5363 79.2505 19.7939 79.1846 20.044 79.1006C21.7544 78.5258 23.6211 77.9668 25.3219 78.5693C25.8752 78.7654 26.2965 79.2212 26.4485 79.7882L26.6716 80.621C26.8648 80.5692 26.7612 80.1829 27.3407 80.0276C28.577 79.6964 29.652 80.9266 30.0349 81.5831C31.004 81.5668 31.8598 82.2121 32.1106 83.1483L32.4084 84.2597C32.4855 84.0321 32.8609 83.476 33.7467 83.073C34.3923 82.7793 36.2181 82.8952 37.7195 83.0704C38.5532 83.1677 38.7231 84.4565 39.5455 84.6248C39.9836 84.7144 39.7303 84.0783 41.0908 84.2107C42.1238 84.3112 45.7981 85.717 48.7333 86.9053C50.2189 87.5067 50.693 89.3423 51.8676 90.4327C52.5818 91.0956 53.9259 90.6055 54.8377 90.1419C55.468 89.8214 56.1689 89.6273 56.8688 89.7278C59.2969 90.0764 65.2106 91.166 68.5152 93.8393C69.0047 94.2354 68.6302 94.9402 69.1224 95.3329C70.0225 96.0511 71.4146 96.1407 71.9395 97.1656C72.6898 98.6305 73.6944 100.764 74.1421 102.476C74.4534 103.667 74.6906 105.401 74.7907 106.201C74.8263 106.486 74.782 106.775 74.6666 107.038C74.4479 107.537 74.4056 108.096 74.5467 108.622L74.6005 108.823C74.7613 109.423 74.7524 110.056 74.5748 110.652L74.2701 111.673C73.5041 114.241 72.1213 116.715 69.6384 117.724C68.314 118.262 66.7273 118.648 65.0023 118.59C60.1971 118.428 51.3243 110.04 50.486 109.229C45.7915 104.69 49.2545 98.3791 49.2224 97.5596C49.1085 94.6486 46.4872 102.572 43.7573 103.589C42.9058 103.907 42.1335 104.131 41.6686 104.138C40.5178 104.158 34.4677 100.321 30.4772 97.6654C29.4437 96.9776 28.7039 95.9323 28.3825 94.7331C28.286 94.3728 27.9158 94.1591 27.5555 94.2556L27.4343 94.2881C26.4384 94.5549 25.3795 94.4525 24.4532 93.9996L19.444 91.5505C18.8468 91.2585 18.4053 90.7224 18.2333 90.0804C18.1827 89.8917 17.9888 89.7797 17.8002 89.8303L17.6231 89.8777C16.9689 90.053 16.2712 89.9457 15.6999 89.5819L12.1487 87.3204C11.4771 86.8928 10.9902 86.2289 10.7841 85.4598L10.662 85.0041C10.6477 84.9507 10.6045 84.91 10.5503 84.8989C10.0815 84.803 9.72937 84.4137 9.6807 83.9377Z" fill="#797979"/>
<path d="M16.0899 77.6385L18.3773 77.9106C19.0084 77.9856 19.7751 77.8408 19.9333 77.2253C20.2627 75.9429 18.9552 74.9899 17.7204 74.5121L16.2147 73.9293C14.5097 73.2694 12.7019 72.6177 10.8818 72.7892C10.3716 72.8373 9.96564 72.9864 9.81251 73.3359C9.06408 75.0441 11.4808 76.4159 13.2666 76.9537L14.3062 77.2668C14.8889 77.4422 15.4857 77.5666 16.0899 77.6385Z" fill="#797979"/>
<path d="M85.4004 76.3517L85.2486 77.0054C84.9573 78.2599 84.9793 79.5669 85.3126 80.811C85.8986 82.9978 86.9575 85.0262 88.4214 86.7531C94.4438 93.8571 103.57 104.542 104.507 105.313C106.214 106.719 108.508 104.768 110.176 103.317L114.883 99.2208C114.201 99.9639 113.032 100.968 111.872 102.164C108.217 105.932 109.282 111.616 112.3 115.912C113.247 117.26 114.184 118.455 114.964 119.384C115.662 120.217 116.613 120.865 117.66 120.573C118.648 120.297 118.46 119.019 117.855 118.191C117.293 117.422 116.735 116.575 116.208 115.679C113.892 111.742 113.856 106.522 117.757 104.146C117.89 104.065 118.022 103.987 118.153 103.913C119.337 103.24 121.65 100.132 121.275 101.442C120.873 102.848 120.701 104.301 121.408 105.582C122.79 108.085 125.229 112.176 126.637 114.498C127.28 115.912 128.68 113.335 128.256 111.84C127.062 107.626 125.531 105.319 124.821 104.632L124.575 103.712C124.448 103.24 123.999 102.928 123.512 102.975L123.145 103.011L123.218 102.918C123.552 102.492 123.621 101.915 123.397 101.422C123.309 101.229 123.14 101.086 122.942 101.009C122.515 100.845 121.912 100.542 121.544 100.127C122.513 100.033 122.582 99.3661 122.496 99.0442L120.316 96.3158L117.911 88.8858L113.005 79.8485L108.316 69.3038L106.532 64.1918L103.752 57.683C103.016 55.9597 102.425 54.5979 100.999 53.3814C99.4425 52.0528 96.9053 51.616 94.9965 52.3547C90.3756 54.1429 83.36 58.5799 82.7095 61.0513C81.9128 64.0785 87.0946 62.2115 89.8678 60.7596L95.1829 57.977C95.8266 57.6401 96.6101 57.5107 96.7985 58.2124C97.0012 58.9671 95.9541 59.5495 95.2002 59.7555C89.8131 61.2271 86.5472 63.8125 84.7958 65.9726C83.5383 67.5237 82.6507 70.0267 84.3914 71.0052C85.3068 71.5198 86.3408 70.3126 86.9394 69.4497C88.5057 67.1921 91.447 65.5029 93.8204 64.4968C95.117 63.9472 97.099 65.2701 95.7387 65.6346C93.3246 66.0865 90.9898 67.6556 89.1872 69.2574C87.1333 71.0826 86.0219 73.6752 85.4004 76.3517Z" fill="#797979"/>
<path d="M113.785 54.1737C112.334 54.4245 109.008 55.6608 107.425 56.7061C105.695 57.6666 105.184 57.0996 104.707 56.6063C103.692 54.837 103.636 50.095 110.044 43.9039C112.1 41.9171 114.916 40.869 117.736 41.3412C128.11 43.0782 143.403 51.3709 153.383 57.5848C156.661 59.6254 158.89 62.9493 159.715 66.7209L160.269 69.2543C161.455 70.5926 163.76 73.7846 163.484 75.8461C163.14 78.4229 160.973 76.5189 154.268 81.6282C148.903 85.7156 145.865 89.6766 145.017 91.1462L142.313 91.8708L141.25 86.3586C141.148 84.1774 143.403 79.4049 153.232 77.7649C153.053 77.0958 151.37 76.7147 149.869 76.5277C149.144 76.4373 148.696 75.6518 149.033 75.0039L151.317 70.6177C149.44 73.3981 144.608 78.9577 140.3 78.9526C137.61 78.1829 139.68 73.8048 141.052 71.712C141.603 70.8896 142.372 69.4071 142.965 67.5416C143.319 66.4269 142.47 66.3463 142.098 67.4552C141.372 69.6184 140.624 70.968 140.176 71.5327C139.412 72.2894 137.606 72.7596 136.488 68.5872C135.09 63.3716 131.146 50.971 123.171 49.7954C120.812 50.262 122.791 51.2086 124.075 51.6236C126.631 52.664 132.174 57.2794 133.897 67.418C135.133 74.6886 135.491 77.2541 135.518 77.8388C137.174 79.1115 140.57 84.263 141.595 95.3756C142.046 101.383 141.891 102.404 141.758 102.164C141.536 103.397 140.581 104.881 138.536 100.957C137.992 99.9126 137.512 99.059 137.098 98.3618C136.027 96.5565 133.758 95.4661 131.799 96.2223C130.193 96.8427 128.632 97.8585 127.955 99.3993C127.874 99.5815 127.861 99.7856 127.898 99.9811C127.989 100.456 128.085 100.895 128.185 101.301C128.949 104.399 130.564 107.276 131.507 110.324C131.564 110.506 131.437 110.69 131.248 110.666C130.364 110.555 128.799 109.861 127.491 107.643C125.594 104.425 120.557 93.3525 121.105 88.4438C121.543 84.5169 126.402 83.2289 128.776 83.0757C129.034 83.0067 129.409 82.6576 128.852 81.8132C128.486 81.2599 125.728 82.4383 123.027 83.7948C120.698 84.9648 117.85 84.6545 116.338 82.531C113.965 79.1979 111.259 73.9927 110.323 67.5235C110.805 66.3231 111.46 65.7692 112.155 64.9453C112.697 64.3027 112.084 63.4706 111.262 63.6492L109.198 64.0983C107.919 63.9581 105.576 62.1703 106.939 59.5279C108.146 57.1862 110.56 56.1493 112.648 55.7856C114.149 55.524 115.306 54.0756 113.785 54.1737Z" fill="#797979"/>
</svg>
