<svg width="1024" height="135" viewBox="0 0 1024 135" fill="none" xmlns="http://www.w3.org/2000/svg">
<path d="M1024 80.4365C1018.84 80.9365 1008.37 82.2365 1007.72 83.4365C1007.01 81.6032 1005.11 78.9374 1003.19 82.9365C1001.27 86.9366 996.342 84.9366 994.118 83.4365H993.716L982.94 86.4229C983.445 87.4758 984.071 93.0238 984.513 93.4375L985.58 94.4375C984.424 96.6043 981.845 100.938 980.777 100.938C979.442 100.937 953.297 88.9377 959.967 105.438V106.938H956.498C952.585 103.604 943.478 97.9377 938.355 101.938L911.941 101.438C906.516 99.9374 894.599 96.1376 890.33 92.9375C890.063 93.6043 889.423 94.9375 888.996 94.9375C888.462 94.9348 885.528 85.4364 885.528 84.4365C885.526 83.4367 878.591 82.4371 875.656 84.4365C872.721 86.4366 862.316 99.4375 852.978 99.4375C850.309 102.938 842.519 108.738 832.7 103.938C822.882 99.1377 812.78 104.271 808.955 107.438C808.244 106.937 805.86 106.237 802.018 107.438C797.215 108.938 791.879 113.439 787.076 108.438C782.273 114.606 771.602 126.039 767.333 122.438C761.997 117.938 759.862 117.439 756.394 108.438C755.949 109.105 754.739 110.338 753.459 109.938C751.858 109.438 746.789 100.938 745.455 100.938C744.388 100.938 741.097 98.6042 739.585 97.4375C738.429 96.7709 735.529 96.3375 733.182 99.9375C730.247 104.438 721.709 116.938 714.238 100.938C708.902 98.6041 695.775 95.3374 685.957 100.938C673.684 107.938 662.212 106.938 661.411 108.438C660.61 109.937 657.409 104.938 654.475 106.438C651.54 107.938 635.531 110.438 633.13 104.938C627.26 105.771 614.934 107.038 612.586 105.438C609.651 103.437 604.582 92.9379 601.113 89.9375C597.645 86.9374 589.907 83.9366 588.307 81.4365C586.706 78.9362 584.571 69.4369 576.567 76.9365C576.301 76.9365 573.899 68.4364 569.896 71.9365C565.895 75.4364 566.428 73.9365 565.895 73.9365C565.358 73.9347 553.62 65.9369 540.015 70.4365C538.859 71.7699 536.546 74.9364 536.546 76.9365C536.012 76.2698 534.518 75.0365 532.811 75.4365C531.103 75.8367 528.719 78.6032 527.741 79.9365C524.184 79.1032 516.002 78.1368 511.733 80.9365C506.397 84.4367 509.598 75.9363 494.657 82.4365C479.716 88.9367 483.985 87.9367 477.849 83.9365C470.2 85.4366 453.463 87.5366 447.7 83.9365C443.342 86.1033 433.559 90.0376 429.29 88.4375C423.954 86.4374 420.486 83.9365 420.219 83.9365C419.952 83.9387 418.351 92.937 414.883 90.9375C411.414 88.9374 406.612 71.9378 401.275 76.9375C400.297 72.9372 394.019 69.0368 376.729 85.4375C373.883 86.9977 367.232 87.9811 363.39 79.4365C360.366 81.77 351.65 85.1367 340.978 79.9365C327.637 81.4366 326.837 68.4362 318.299 76.4365C316.164 72.2697 309.708 66.4366 300.957 76.4365C297.4 76.4362 288.417 78.4359 280.946 86.4365C280.946 86.3885 280.914 86.277 280.861 86.1123L284.87 106.782C285.028 106.757 285.141 106.799 285.215 106.937C285.642 107.737 288.595 112.27 290.018 114.437C284.255 122.437 264.316 117.77 255.066 114.437C250.157 120.437 237.724 122.937 232.121 123.438C224.864 114.237 214.512 123.604 210.243 129.438C207.895 119.437 202.683 124.271 200.371 127.938C195.676 134.737 193.612 127.771 193.167 123.438C190.819 129.037 188.632 127.771 187.831 126.438C178.76 117.937 175.558 114.437 173.957 116.437C172.356 118.437 171.022 117.937 170.222 117.937C169.581 117.936 168.176 115.603 167.554 114.437C167.109 114.27 166.113 114.737 165.687 117.937C165.26 121.137 161.773 129.271 160.083 132.938C155.814 139.737 151.012 128.103 149.145 121.437L144.342 126.438C139.006 132.838 136.249 133.438 135.537 132.938C133.189 133.337 129.401 125.437 127.8 121.437C124.331 129.937 117.928 136.437 113.926 121.437C109.924 106.437 99.2524 121.436 98.1846 121.437C94.3426 126.237 92.4925 123.437 92.0479 121.437C83.5102 105.036 79.0634 103.936 77.9072 105.437C68.7296 109.436 67.5017 103.77 68.0352 100.437L61.0986 97.9355C59.818 99.1355 54.34 100.103 51.7607 100.437C47.2784 89.2361 35.8409 91.4355 30.6826 93.9355C23.2121 106.336 14.5856 97.1025 11.2061 90.9355L0 89.4355V0.5H1024V80.4365ZM978.624 87.6191C978.893 87.7229 979.167 87.8289 979.443 87.9375C980.313 87.9375 982.135 87.6493 982.613 86.5137L978.624 87.6191Z" fill="white"/>
<path d="M11.2058 90.893L0 89.393V76.8941L11.2058 77.3941C14.1407 85.3941 21.8781 87.3941 24.5461 87.3941C27.2142 87.3941 30.149 81.3941 30.9495 80.3941C31.7499 79.3941 41.8885 79.3941 45.8906 80.3941C49.8927 81.3941 51.2267 87.8941 51.7603 87.8941C52.2939 87.8941 60.0313 85.893 61.6321 85.393C62.9128 84.993 66.4346 87.5597 68.0354 88.893C69.3161 96.493 72.6601 95.7263 74.172 94.393C83.777 90.893 85.6446 95.893 89.3799 104.893C93.1152 113.893 95.2496 112.393 95.5164 112.393C99.3584 107.993 105.121 104.56 107.523 103.393C114.46 101.893 114.46 119.393 121.13 120.893C123.14 121.345 126.555 115.06 128.067 111.393C128.333 114.893 135.004 126.393 138.472 122.393C141.247 119.193 146.743 114.06 149.144 111.893C150.478 119.893 154.747 124.893 156.882 124.893C159.016 124.893 163.819 116.393 163.819 113.393C163.819 110.393 167.554 102.393 167.554 103.893C167.554 105.093 170.222 106.393 171.556 106.893C171.556 107.393 172.41 107.793 175.825 105.393C179.027 104.393 186.497 116.393 188.632 116.393C190.339 116.393 192.011 114.393 192.634 113.393C195.408 122.193 197.703 120.726 198.503 118.893C198.859 117.726 200.584 114.693 204.64 111.893C209.709 108.393 208.909 120.893 210.243 118.893C211.577 116.893 217.713 111.393 222.516 108.393C227.318 105.393 230.787 111.893 237.19 113.393C243.594 114.893 251.064 104.893 255.867 102.393C260.669 99.893 270.274 106.893 276.144 108.393C282.014 109.893 284.682 105.893 285.215 106.893C285.642 107.693 288.595 112.226 290.018 114.393C284.255 122.393 264.315 117.726 255.066 114.393C250.157 120.393 237.724 122.893 232.121 123.393C224.864 114.193 214.512 123.56 210.243 129.393C207.895 119.393 202.683 124.226 200.371 127.893C195.675 134.693 193.612 127.726 193.167 123.393C190.819 128.993 188.632 127.726 187.831 126.393C178.76 117.893 175.558 114.393 173.957 116.393C172.356 118.393 171.022 117.893 170.222 117.893C169.582 117.893 168.176 115.56 167.554 114.393C167.109 114.226 166.113 114.693 165.686 117.893C165.259 121.093 161.773 129.226 160.083 132.893C155.814 139.693 151.012 128.06 149.144 121.393L144.342 126.393C139.006 132.793 136.249 133.393 135.537 132.893C133.189 133.293 129.401 125.393 127.8 121.393C124.331 129.893 117.928 136.393 113.926 121.393C109.924 106.393 99.2517 121.393 98.1845 121.393C94.3425 126.193 92.4926 123.393 92.0479 121.393C83.5102 104.993 79.0634 103.893 77.9072 105.393C68.7291 109.393 67.5018 103.726 68.0354 100.393L61.0985 97.893C59.8178 99.093 54.3394 100.06 51.7603 100.393C47.278 89.193 35.8409 91.393 30.6826 93.893C23.2121 106.293 14.5854 97.0597 11.2058 90.893Z" fill="lightGray"/>
<path d="M278.011 77.3941C277.745 78.3941 280.946 85.8941 280.946 86.3941C288.417 78.3938 297.399 76.3943 300.957 76.3945C309.708 66.3945 316.165 72.2279 318.299 76.3945C326.837 68.3945 327.637 81.3945 340.978 79.8945C351.65 85.0945 360.365 81.7279 363.389 79.3945C367.231 87.939 373.884 86.9547 376.73 85.3945C394.019 68.9945 400.297 72.8949 401.276 76.8951C406.612 71.8956 411.414 88.8945 414.883 90.8945C418.351 92.8945 419.952 83.8945 420.219 83.8945C420.486 83.8945 423.954 86.3945 429.29 88.3945C433.559 89.9945 443.342 86.0612 447.7 83.8945C453.463 87.4945 470.2 85.3945 477.849 83.8945C483.985 87.8945 479.716 88.8945 494.658 82.3945C509.599 75.8945 506.397 84.3945 511.733 80.8945C516.002 78.0945 524.184 79.0612 527.742 79.8945C528.72 78.5612 531.103 75.7945 532.811 75.3945C534.518 74.9945 536.013 76.2279 536.546 76.8945C536.546 74.8945 538.858 71.7279 540.015 70.3945C553.622 65.8945 565.361 73.8945 565.895 73.8945C566.428 73.8945 565.895 75.3945 569.897 71.8945C573.899 68.3945 576.3 76.8945 576.567 76.8945C584.571 69.3945 586.706 78.8945 588.306 81.3945C589.907 83.8945 597.645 86.8945 601.113 89.8945C604.582 92.8945 609.651 103.395 612.586 105.395C614.934 106.995 627.26 105.728 633.13 104.895C635.531 110.395 651.539 107.895 654.474 106.395C657.409 104.895 660.611 109.895 661.411 108.395C662.212 106.895 673.684 107.895 685.957 100.895C695.776 95.2945 708.903 98.5612 714.239 100.895C721.709 116.895 730.247 104.395 733.182 99.8945C735.53 96.2945 738.429 96.7279 739.585 97.3945C741.097 98.5612 744.388 100.895 745.455 100.895C746.789 100.895 751.858 109.395 753.459 109.895C754.74 110.295 755.949 109.061 756.394 108.395C759.862 117.395 761.997 117.895 767.333 122.395C771.602 125.995 782.274 114.561 787.077 108.395C791.879 113.395 797.215 108.895 802.018 107.395C805.86 106.195 808.243 106.895 808.955 107.395C812.779 104.228 822.882 99.0945 832.7 103.895C842.519 108.695 850.31 102.895 852.978 99.3945C862.316 99.3945 872.721 86.3945 875.656 84.3945C878.591 82.3945 885.528 83.3945 885.528 84.3945C885.528 85.3945 888.463 94.8945 888.996 94.8945C889.423 94.8945 890.064 93.5612 890.33 92.8945C894.599 96.0945 906.517 99.8945 911.942 101.395L938.355 101.895C943.478 97.8945 952.585 103.561 956.498 106.895H959.967V105.395C953.296 88.8945 979.443 100.895 980.777 100.895C981.845 100.895 984.424 96.5612 985.58 94.3945L984.513 93.3945C983.979 92.8945 983.179 84.8945 982.645 86.3945C982.218 87.5945 980.333 87.8945 979.443 87.8945C956.498 78.8945 959.166 86.3945 959.166 88.8945C959.166 91.3945 959.967 94.8945 958.633 95.3945C957.565 95.7945 948.405 90.8945 943.958 88.3945C942.357 89.3945 938.676 90.8945 936.755 88.8945C934.353 86.3945 912.475 90.8945 911.408 88.8945C910.341 86.8945 897.267 84.3945 894.066 82.8945C891.504 81.6945 890.33 80.0612 890.064 79.3945C889.975 80.0612 889.637 81.4945 888.996 81.8945C888.196 82.3945 886.862 74.8945 885.528 70.3945C884.461 66.7945 878.324 68.8945 875.389 70.3945C871.12 78.3945 853.778 86.8945 852.444 87.8945C851.11 88.8945 848.442 95.3945 843.639 93.3945C838.837 91.3945 823.095 90.8945 821.495 90.3945C819.894 89.8945 811.356 94.8945 808.154 96.3945C804.953 97.8945 807.354 96.8945 803.352 94.8945C799.35 92.8945 796.682 98.8945 793.747 99.3945C791.399 99.7945 788.322 97.5612 787.077 96.3945C779.072 108.395 776.404 106.895 770.535 111.895C764.665 116.895 756.394 95.3945 756.394 95.8945C756.394 96.3945 753.459 97.8945 751.858 97.3945C750.257 96.8945 745.989 89.3945 745.455 88.8945C744.921 88.3945 744.921 88.8945 741.453 85.3945C738.678 82.5945 736.206 84.2279 735.316 85.3945C733.36 88.5612 728.433 95.3945 724.377 97.3945C719.308 99.8945 715.839 91.3945 714.239 88.8945C712.638 86.3945 704.367 86.8945 703.833 86.8945C697.643 83.2945 691.649 85.3945 689.426 86.8945C682.382 90.8945 666.925 94.8945 660.077 96.3945C658.743 91.3945 643.535 99.3945 637.665 96.3945C632.97 93.9945 631.262 92.7279 630.995 92.3945C622.991 95.8945 614.72 93.8945 612.052 92.3945C609.384 90.8945 603.781 74.8945 601.113 75.8945C598.979 76.6945 591.152 69.5616 587.506 65.8951C583.237 52.8956 579.502 60.3945 578.968 59.8945C578.435 59.3945 576.834 63.3945 576.3 61.3945C575.767 59.3945 573.098 56.3945 570.964 57.3945C568.83 58.3945 566.428 58.3951 565.895 58.3951C561.893 53.3951 548.552 55.3951 545.351 55.3951H540.281C538.36 55.3951 536.991 60.0617 536.546 62.3951C535.052 57.1951 530.41 62.5617 528.275 65.8951C525.5 62.6951 520.716 64.5617 518.67 65.8951C516.447 66.8951 511.039 68.2951 507.197 65.8951C502.395 62.8951 496.525 67.3951 494.658 68.8951C492.79 70.3951 484.786 73.3951 481.051 72.8951C477.315 72.3951 478.382 68.3951 477.048 69.8951C475.714 71.3951 454.637 71.3951 451.168 69.8951C448.394 68.6951 444.142 70.3951 442.364 71.3951C432.118 77.7951 423.154 73.0617 419.952 69.8951C419.098 74.2951 417.106 76.3951 416.217 76.8951C413.549 79.8951 408.213 67.3951 406.345 63.3951C404.477 59.3951 403.41 60.8951 402.876 61.8951C402.45 62.6951 401.098 62.2284 400.475 61.8951C395.406 53.8951 382.332 65.8951 376.196 71.8951C370.059 77.8951 364.19 65.8951 363.389 65.8951C362.589 65.8951 356.986 70.3951 355.118 69.8951C353.624 69.4951 345.069 67.0617 340.978 65.8951C340.088 67.2284 336.602 68.4951 329.772 62.8951C322.942 57.2951 319.633 60.2278 318.833 62.3941C315.418 55.9934 311.896 55.3945 310.562 55.8951C307.894 53.8951 301.224 62.3941 300.423 62.3941C294.02 59.3941 278.278 76.3941 278.011 77.3941Z" fill="lightGray"/>
<path d="M985.58 81.3945C986.114 82.8945 985.046 82.8945 984.78 83.3945H994.118C996.341 84.8945 1001.27 86.8945 1003.19 82.8945C1005.11 78.8945 1007.01 81.5612 1007.72 83.3945C1008.37 82.1945 1018.84 80.8945 1024 80.3945V66.3945C1022.67 64.8945 1007.72 70.3945 1007.19 68.8945C1006.76 67.6945 1005.95 67.0612 1005.59 66.8945C1004.7 68.0612 1002.5 70.5945 1000.79 71.3945C998.653 72.3945 995.985 71.3945 994.651 69.8945C993.317 68.3945 983.712 69.8945 982.912 71.3945C982.112 72.8945 983.712 74.8945 984.78 79.3945C985.847 83.8945 985.046 79.8945 985.58 81.3945Z" fill="lightGray"/>
</svg>
