<svg width="390" height="174" viewBox="0 0 390 174" fill="none" xmlns="http://www.w3.org/2000/svg">
<path d="M22.8381 136.202C22.8381 136.202 30.9644 134.715 35.4957 136.678C40.0271 138.64 48.3346 133.229 48.3346 133.229C49.9959 130.192 52.5561 127.725 55.6754 126.153C60.086 124.429 54.4973 117.918 62.0496 114.946C66.1842 113.546 69.739 110.852 72.1696 107.275C72.1696 107.275 82.3803 102.132 89.5701 104.659C96.7599 107.186 94.9171 110.605 99.1162 111.17C102.918 112.061 106.585 113.441 110.022 115.273L115.822 119.643C117.237 119.772 118.665 119.603 120.009 119.147C121.353 118.691 122.582 117.958 123.616 116.997C127.452 113.697 134.763 120.327 134.763 120.327L140.805 123.299C141.79 122.14 143.04 121.227 144.452 120.633C145.864 120.039 147.399 119.781 148.931 119.881C154.036 120.356 161.015 115.986 161.015 115.986L169.715 112.686C172.759 114.033 175.493 115.975 177.751 118.394C180.262 120.885 183.383 122.697 186.813 123.656C190.805 124.261 194.39 126.4 196.782 129.602C199.406 133.181 202.448 136.444 205.845 139.323C210.296 139.33 214.738 138.912 219.107 138.075C225.964 136.707 228.502 132.813 232.912 134.626C237.323 136.44 248.591 135.31 248.591 135.31L257.654 130.286C257.654 130.286 265.84 125.351 270.04 129.007C274.239 132.664 285.476 131.505 285.476 131.505C289.926 129.332 293.548 125.809 295.808 121.456C298.194 116.701 301.037 112.182 304.297 107.959L311.396 104.094L334.838 102.37L343.901 95.8595C343.901 95.8595 352.964 88.7543 355.743 88.7543C358.596 88.5805 361.434 88.203 364.232 87.6246C364.232 87.6246 368.4 81.6788 373.868 85.0084C378.279 87.5651 386.768 84.2949 389.879 82.9274V0.48877H0V150.501L10.3013 146.726L22.8381 136.202Z" fill="white"/>
<g filter="url(#filter0_d_500_1289)">
<path d="M373.989 85.0083C368.521 81.7975 364.352 87.6244 364.352 87.6244C361.554 88.2028 358.717 88.5804 355.864 88.7541C352.843 88.7541 344.022 95.8594 344.022 95.8594L334.959 102.37L311.517 104.094L304.417 107.959C301.157 112.182 298.315 116.701 295.929 121.456C293.668 125.809 290.046 129.331 285.597 131.504C285.597 131.504 274.329 132.545 270.16 129.007C265.991 125.47 257.593 130.256 257.593 130.256L248.531 135.28C248.531 135.28 237.263 136.44 232.852 134.596C228.442 132.753 225.904 136.677 219.046 138.045C214.677 138.882 210.236 139.301 205.785 139.294C202.387 136.414 199.345 133.151 196.722 129.572C194.33 126.37 190.745 124.231 186.753 123.626C183.323 122.668 180.202 120.855 177.69 118.364C175.432 115.945 172.699 114.003 169.655 112.656L160.954 115.956C160.954 115.956 153.976 120.326 148.871 119.851C147.338 119.751 145.804 120.009 144.392 120.603C142.98 121.197 141.73 122.111 140.744 123.27L134.703 120.297C134.703 120.297 127.392 113.667 123.555 116.967C122.522 117.928 121.292 118.661 119.948 119.117C118.604 119.574 117.177 119.742 115.761 119.613L109.961 115.272C106.525 113.44 102.858 112.061 99.0558 111.17C94.8567 110.486 96.6692 107.156 89.5097 104.54C82.3501 101.924 72.1092 107.156 72.1092 107.156C69.6786 110.733 66.1238 113.427 61.9892 114.827C54.4369 117.799 60.0256 124.31 55.615 126.034C52.5004 127.647 49.9603 130.157 48.3346 133.229C48.3346 133.229 40.0875 138.61 35.5562 136.677C31.0248 134.745 22.8985 136.202 22.8985 136.202L10.3013 146.726L0 150.501V160.461L11.4191 156.239L23.8954 145.804C23.8954 145.804 31.9915 144.318 36.4926 146.25C40.9938 148.182 49.1805 142.861 49.1805 142.861C50.8352 139.848 53.3716 137.393 56.4609 135.815C60.8412 134.091 55.3129 127.61 62.8048 124.667C66.906 123.282 70.4303 120.607 72.8342 117.056C72.8342 117.056 83.0147 111.943 90.1743 114.44C97.3338 116.937 95.4609 120.386 99.6297 120.921C103.414 121.809 107.061 123.188 110.475 125.024L116.245 129.334C117.629 129.448 119.022 129.273 120.334 128.823C121.645 128.372 122.846 127.655 123.857 126.718C127.694 123.418 134.944 130.018 134.944 130.018L140.986 132.991C141.961 131.835 143.2 130.922 144.602 130.328C146.004 129.734 147.529 129.475 149.052 129.572C154.157 130.048 161.136 125.707 161.136 125.707L169.926 122.378C172.974 123.795 175.69 125.82 177.902 128.323C180.417 130.797 183.538 132.589 186.964 133.526C190.92 134.105 194.488 136.186 196.903 139.323C199.469 142.875 202.45 146.118 205.785 148.985C210.206 148.992 214.617 148.574 218.956 147.737C225.753 146.369 228.29 142.504 232.701 144.318C237.112 146.131 248.289 145.001 248.289 145.001L257.17 140.007C257.17 140.007 265.478 135.25 269.647 138.758C273.816 142.266 284.993 141.256 284.993 141.256C289.38 139.08 292.954 135.594 295.204 131.296C297.574 126.574 300.396 122.084 303.632 117.889L310.671 114.024L333.992 112.329L343.055 105.848C343.055 105.848 351.936 98.8026 354.837 98.8026C357.67 98.6279 360.487 98.2503 363.265 97.6728C363.265 97.6728 367.404 91.8757 372.841 95.0567C378.279 98.2377 389.94 92.4405 389.94 92.4405V82.9272C386.888 84.2948 378.4 87.565 373.989 85.0083Z" fill="#F2F2F2"/>
</g>
<defs>
<filter id="filter0_d_500_1289" x="-8.1" y="79.8272" width="406.14" height="93.7332" filterUnits="userSpaceOnUse" color-interpolation-filters="sRGB">
<feFlood flood-opacity="0" result="BackgroundImageFix"/>
<feColorMatrix in="SourceAlpha" type="matrix" values="0 0 0 0 0 0 0 0 0 0 0 0 0 0 0 0 0 0 127 0" result="hardAlpha"/>
<feOffset dy="5"/>
<feGaussianBlur stdDeviation="4.05"/>
<feComposite in2="hardAlpha" operator="out"/>
<feColorMatrix type="matrix" values="0 0 0 0 0 0 0 0 0 0 0 0 0 0 0 0 0 0 0.11 0"/>
<feBlend mode="normal" in2="BackgroundImageFix" result="effect1_dropShadow_500_1289"/>
<feBlend mode="normal" in="SourceGraphic" in2="effect1_dropShadow_500_1289" result="shape"/>
</filter>
</defs>
</svg>
